<?xml version="1.0" encoding="utf-8"?>
<!-- Generator: Adobe Illustrator 23.1.1, SVG Export Plug-In . SVG Version: 6.00 Build 0)  -->
<svg version="1.2" baseProfile="tiny" id="Layer_1" xmlns="http://www.w3.org/2000/svg" xmlns:xlink="http://www.w3.org/1999/xlink"
	 x="0px" y="0px" viewBox="0 0 290 97" xml:space="preserve">
<g>
	<circle fill="#FF69B4" cx="47.07" cy="49.46" r="46.07"/>
	<g>
		<g>
			<path fill="#EFC87D" d="M76.5,85.82c-0.16,1.09-1.2,1.14-1.86,1.61c-0.85,0.61-1.84,1.03-2.77,1.53
				c-0.43-0.35-0.44-0.9-0.63-1.37c-0.45-1.7-0.22-3.48-0.6-5.18c0-0.14-0.03-0.28,0.02-0.42c-0.09,0.12-0.03,0.26-0.03,0.38
				c0,0.19,0.04,0.38,0.09,0.57c-0.1,0.54,0.19,1.03,0.21,1.56c0.01,0.51,0,1.02,0.01,1.53c0.07,1.22,0.4,2.45-0.29,3.61
				c-0.2,0.1-0.4,0.19-0.61,0.29c-0.71,0.02-0.45-0.55-0.49-0.9c-0.05-0.57,0.05-1.15-0.13-1.71c-0.05-0.72-0.1-1.45-0.19-1.78
				c0.15,0.48,0.07,1.39,0.29,2.25c-0.05,0.91,0.28,1.9-0.45,2.69c-1.97,0.79-3.84,1.84-5.96,2.21c-0.49-0.85-0.04-1.64,0.2-2.42
				c1.29-4.22,2.54-8.45,3.5-12.76c0.5-2.26,0.7-4.57,1.04-6.86c0.23-0.68,0.2-1.38,0.16-2.09c0-1.18-0.01-2.37-0.01-3.55
				c0.02-1.06,0.15-2.12-0.14-3.17c-0.54-3.82-1.49-7.56-2.32-11.32c0.1-0.38,0.35-0.57,0.72-0.62c0.73,0.14,0.68,0.83,0.9,1.32
				c0.15,0.51,0.3,1.02,0.49,1.52c0.17,0.42,0.32,0.85,0.55,1.24c-0.1-1.53-0.23-3.05-0.58-4.55c-0.12-0.51-0.18-1.04,0.33-1.4
				c0.14-0.05,0.28-0.06,0.43-0.04c0.53,0.23,0.73,0.7,0.85,1.22c-0.03,0.58,0.19,1.05,0.6,1.43c0.27,0.33,0.51,0.69,0.71,1.08
				c0.16,0.91,0.62,1.7,0.96,2.54c0.64,2.25,1.41,4.47,1.95,6.76c0.07,0.64,0,1.29,0.18,1.91c0.04,0.24,0.04,0.48,0.01,0.72
				c-0.17,0.62-0.13,1.26-0.18,1.89c-0.23,1.01-0.36,2.04-0.7,3.01c-0.2,0.5-0.36,1.01-0.56,1.5c-0.05,0.61-0.34,1.14-0.47,1.72
				c-0.07,0.52-0.38,0.96-0.48,1.47c0,0.6-0.38,1.11-0.37,1.71c-0.24,0.47-0.31,0.96-0.15,1.46c-0.09-0.38-0.13-0.75,0.05-1.13
				c0.15-0.64,0.35-1.27,0.47-1.92c0.05-0.53,0.38-0.96,0.47-1.47c0.12-0.5,0.3-0.99,0.45-1.49c0.03-0.47,0.31-0.85,0.41-1.3
				c0.58-1.38,0.7-2.89,1.15-4.3c0.28-0.93,0.25-1.85,0-2.78c-0.58-2.85-1.54-5.59-2.44-8.34c-0.33-0.79-0.61-1.6-0.85-2.43
				c-0.04-0.23-0.02-0.45,0.12-0.65c1.01,0.51,0.6-0.52,0.85-0.83c0.59-0.45,0.91,0.12,1.27,0.4c0.57,0.43,1.1,0.9,1.85,0.95
				c0.31,0.09,0.57,0.28,0.78,0.52c2.75,4.21,3.86,8.84,3.33,13.87c0,0.31-0.1,0.59-0.23,0.88c-0.1,0.23-0.09,0.49-0.1,0.45
				c0.01,0.08,0.04-0.12,0.09-0.33c0.24-0.39,0.2-0.87,0.41-1.27c0.11-0.12,0.24-0.17,0.41-0.15c0.14,0.09,0.23,0.21,0.3,0.36
				c0.24,0.78,0.06,1.62,0.36,2.38c0.4,2.7,1.57,5.2,1.95,7.9c0.03,1.08,0.02,2.17,0.02,3.25c-0.33,1.18,0.09,2.6-1.01,3.55
				c-0.71,1.49-2.17,2.05-3.4,2.9c-1.06-0.91-0.7-2.26-1-3.41c-0.14-0.55-0.08-1.12-0.09-1.68c0.01-1.33,0-2.66,0.01-3.99
				c0.06-0.57,0.08-1.15,0.11-1.73c0.01-0.11,0.01-0.21,0.02-0.32c-0.05,0.17-0.03,0.36-0.08,0.53c-0.2,1.92-0.12,3.83-0.13,5.75
				c-0.02,0.6,0.01,1.2,0.17,1.78C76.47,83.56,77.21,84.68,76.5,85.82z"/>
			<path d="M65.74,50.38c1.19,3.71,1.91,7.53,2.47,11.39c0.29,1.08-0.1,2.21,0.23,3.29c0,1.17,0,2.35,0,3.52
				c-0.28,0.65,0.01,1.37-0.22,2.02c-0.51,7.12-2.75,13.82-4.75,20.58c-0.15,0.5-0.24,1-0.35,1.51c-0.57,0.21-1.13,0.42-1.7,0.63
				c-0.59-0.58-0.15-1.17-0.03-1.76c0.1-0.28,0.2-0.57,0.29-0.86c0.57-1.8,0.57-1.8-1.14-2.32c-2.44-0.74-2.58-0.67-3.67,1.75
				c-0.23,0.52-0.47,1.04-0.87,1.46c-0.18,0.16-0.38,0.27-0.62,0.28c-0.44-0.18-0.5-0.57-0.52-0.98c0.1-1.51,1.41-2.59,1.43-4.13
				c-0.14-0.58-0.53-0.59-0.99-0.45c-0.37,0.14-0.63,0.41-0.84,0.74c-1.09,1.34-2.3,2.54-3.57,3.7c-1.86,1.29-3.67,2.66-5.57,3.89
				c-0.64,0.42-1.26,0.93-2.11,0.69c-0.61-0.24-1.34,0.16-1.91-0.36c0.22-0.4,0.65-0.45,0.99-0.64c0.35-0.16,0.7-0.33,1-0.57
				c0.24-0.21,0.49-0.42,0.73-0.63c-0.17-1.29-1.27-1.52-2.16-1.98c-0.33-0.13-0.66-0.27-0.96-0.47c-0.3-0.21-0.55-0.48-0.73-0.8
				c-0.69-1.33-1.94-2.2-2.71-3.46c-0.31-0.23-0.61-0.25-0.89,0.04c-0.56,1.13,0.36,1.88,0.67,2.78c0.67,1.39,1.32,2.8,2.12,4.13
				c0.28,0.46,0.67,0.95,0.36,1.57c-0.39-0.02-0.77-0.04-1.16-0.06c-0.96-0.49-1.23-1.57-1.88-2.31c-0.15-0.26-0.29-0.52-0.43-0.79
				c-1.93-3.88-1.92-3.82-6.17-2.91c-2.14,0.46-4.23,1.09-6.33,1.67c-0.33-0.15-0.66-0.29-0.99-0.44c-0.35-1.04,0.48-1.38,1.07-1.8
				c1.12-0.8,2.46-1,3.77-1.22c0.22-0.06,0.45-0.1,0.68-0.13c0.59-0.05,1.16-0.25,1.75-0.33c0.36-0.04,0.7-0.15,1.05-0.24
				c0.75-0.17,1.5-0.38,2.25-0.58c0.26-0.08,0.51-0.17,0.75-0.31c0.35-0.22,0.7-0.45,1.01-0.73c0.56-0.52,1.26-0.68,1.96-0.85
				c2.03-0.47,2.75-2.72,1.4-4.43c-0.62-0.78-1.46-1.32-2.21-1.95c-3.39-2.82-6.72-5.71-9.05-9.58c-0.25-0.38-0.47-0.77-0.68-1.18
				c-0.19-0.37-0.35-0.76-0.45-1.17c-0.49-1.97-1.14-3.67-3.32-4.46c-1.4-0.51-2.15-2.04-3.03-3.26c-0.21-0.34-0.46-0.65-0.67-0.99
				c-1.08-1.88-1.59-3.91-1.64-6.08c0.01-1.23-0.02-2.46,0.02-3.69c0.06-0.85,0.46-1.59,0.73-2.37c0.1-0.24,0.21-0.48,0.38-0.68
				c1.2-1.49,2.08-1.39,2.81,0.36c0.66,1.59,1.13,3.27,2.03,4.99c0.51-1.08,0.59-2.1,0.79-3.09c0.09-0.44,0.04-0.86-0.46-1.04
				c-1.05-0.36-0.66-0.93-0.1-1.32c2.13-1.49,3.66-3.52,5.04-5.69c0.22-0.35,0.48-0.7,0.95-0.73c0.16,0.02,0.29,0.1,0.39,0.22
				c0.23,0.7-0.17,1.23-0.51,1.74c-1,1.53-2.03,3.04-3.22,4.42c-0.36,0.42-0.54,0.86-0.6,1.41c-0.64,5.29,0.02,10.39,1.25,15.59
				c1.39,5.85,4.97,9.8,9.12,13.47c1.67,1.48,3.34,2.97,5.06,4.38c0.92,0.75,1.95,1.15,3.12,1.16c0.21,0-0.05-0.02,0.15,0
				c3.88,0.47,7.13-0.51,10.06-3.43c2.94-2.93,6.41-5.33,8.68-8.89c2.36-3.7,3.7-7.72,2.46-12.25c-0.61-2.23-1.27-4.43-1.98-6.93
				c-2.14,2.92-4.99,1.85-7.61,1.89c-0.29-0.15-0.69-0.24-0.43-0.73c1.44-0.74,3.01-0.05,4.48-0.45c1.45-0.84,1.57-1.82,0.35-2.86
				c-0.65-0.55-1.41-0.81-2.24-0.9c-0.85-0.04-1.7-0.08-2.55,0.03c-0.13,0.05-0.26,0.08-0.4,0.11c-0.47,0.1-0.88,0.33-1.26,0.62
				c-1.21,0.81-2.29,1.71-2.32,3.38c-0.12,0.22-0.31,0.33-0.56,0.34c-1.21-0.64-1.36-1.14-0.73-2.47c1.38-2.88,5.68-4.77,8.83-3.89
				c1.03,0.29,1.99,0.78,3.13,1.19c-0.24-1.78-0.87-3.28-1.22-4.85c-0.09-0.41-0.15-0.82-0.16-1.24c-0.56-3.19-0.79-6.43-1.19-9.64
				c-0.21-1.66-0.97-2.61-2.44-3.26c-2.58-1.13-5.32-1.44-8.03-1.95c-1.98-0.31-3.96-0.26-5.93-0.03c-2.23,0.35-4.47,0.68-6.69,1.13
				c-1.2,0.24-1.9,0.84-2.26,2.05c-0.78,2.62-1.45,5.27-2.51,7.8c-0.26,0.63-0.43,1.3-1,1.74c-0.46,0.07-0.56-0.26-0.65-0.6
				c-0.06-0.6,0.15-1.14,0.36-1.68c1.15-2.88,1.92-5.88,2.82-8.84c0.23-0.76,0.42-1.53,1.18-1.95c0.24-0.06,0.47-0.01,0.7,0.07
				c1.44,0.2,2.74-0.49,4.11-0.7c1.4-0.02,2.77-0.44,4.18-0.39c1.64,0.03,3.27,0.01,4.91,0.01c3.71,0.14,7.27,0.95,10.65,2.52
				c0.66,0.07,0.4-1.27,1.27-0.88c0.88,0.89,0.9,2.08,1.08,3.21c0.76,4.71,0.8,9.53,2.03,14.17c0.63,2.38,1.34,4.74,2.08,7.09
				C65.78,49.15,66.04,49.74,65.74,50.38z"/>
			<path d="M18.47,44.16c0.12,0.83-0.59,1.42-0.63,2.21c-0.25,0.37-0.24,0.83-0.38,1.23c-0.76,2.08-1.88,4-2.48,6.14
				c-0.9,1.89-0.74,3.91-0.71,5.91c0.09,2.94,1.31,5.53,2.53,8.1c0.85,1.78,1.57,3.61,2.23,5.47c0.69,1.91,0.63,3.89,0.13,5.83
				c-0.57,2.19-1.14,4.4-2.6,6.21c-1.29-0.23-1.38-0.94-0.85-1.99c0.39-0.78,0.69-1.61,1-2.43c1.15-3.04,1.23-6.03-0.19-9.04
				c-1.12-2.38-2.21-4.79-3.13-7.25c-1.63-4.35-1.72-8.78,0.39-12.98c1.58-3.15,2.14-6.38,1.93-9.87c-0.27-4.46,0.13-8.9,1.35-13.21
				c2.44-8.64,8.48-13.89,16.32-17.38c0.8-0.36,1.48-0.71,1.97-1.56c1.34-2.32,3.74-3.03,6.08-3c11.85,0.18,22.52,3.51,30.63,12.8
				c3.22,3.69,5.02,8.22,4.82,13.08c-0.26,6.34,1.19,12.15,3.68,17.84c2.04,4.67,2.47,9.43,0.6,14.32
				c-0.55,1.45,0.04,2.96,0.46,4.39c0.56,1.93,1.18,3.83,1.53,5.82c0.3,1.74,0.02,3.43-0.29,5.09c-0.16,0.88-0.96,1.55-2.01,1.62
				c0.58-1.02,0.18-2.23,0.62-3.27c0.2-1.21,0.22-2.42-0.01-3.63c-0.45-2.63-1.65-5.07-1.93-7.74c-0.19-0.77-0.04-1.56-0.09-2.33
				c-0.31-1.49,0.51-2.77,0.76-4.15c0.23-0.53,0.23-1.09,0.21-1.66c-0.18-3.73-1.53-7.14-2.84-10.55c-0.2-0.53-0.45-1.04-0.55-1.6
				c-0.34-1.15-0.63-2.31-1.21-3.38c-0.56-1.03-0.7-2.14-0.66-3.29c-0.04-2.61,0.11-5.23-0.1-7.83c-0.7-4.52-2.06-8.77-5.26-12.2
				c-2.15-2.31-4.44-4.44-7.29-5.85c-1.17-0.72-2.28-1.55-3.64-1.9c-0.58-0.13-1.05-0.51-1.58-0.75c-0.53-0.26-1.1-0.41-1.66-0.58
				c-1.39-0.44-2.76-0.9-4.19-1.17c-0.69-0.15-1.39-0.28-2.08-0.41c-0.93-0.24-1.9-0.25-2.81-0.6c-0.61-0.26-1.26-0.18-1.89-0.19
				c-0.97,0.04-1.95-0.11-2.9,0.15c-0.6,0.17-1.24,0.09-1.84,0.29c-2.31,0.24-3.34,1.8-3.88,3.85c-0.2,0.5-0.15,1.07-0.44,1.55
				c-0.44,0.46-0.8,0.45-1.04-0.19c0.08-1.29-0.47-1.43-1.48-0.86c-0.87,0.49-1.87,0.77-2.58,1.53c-0.52,0.51-1.11,0.91-1.76,1.24
				c-0.57,0.19-0.92,0.66-1.36,1.03c-5.2,3.62-8.1,8.67-9.13,14.91c-0.25,1.54-0.2,3.1-0.45,4.63c-0.28,1.74-0.06,3.49-0.14,5.23
				c0.08,0.47-0.3,1.04,0.29,1.4c0.18,0.05,0.36,0.12,0.51,0.23C18.68,43.67,18.45,43.92,18.47,44.16z"/>
			<path fill="#EFC87C" d="M16.43,85.97c0.76-2.3,1.97-4.44,2.35-6.88c0.33-2.1,0.26-4.12-0.61-6.08c-0.91-2.03-1.79-4.07-2.68-6.1
				c-0.92-2.09-1.75-4.2-1.79-6.53c0.45-0.88,0.21-1.84,0.34-2.76c0.71-2.48,1.39-4.98,3.15-6.98c0.31-0.05,0.41,0.17,0.5,0.4
				c0.11,2.07,0.66,4.02,1.66,5.84c0.4,1.3-0.5,2.6,0.03,3.89c0.04,0.68,0.31,1.27,0.72,1.8c0.27,0.77,0.56,1.53,0.8,2.31
				c0.12,0.73,0.49,1.36,0.82,2c0.23,0.48,0.47,0.95,0.74,1.41c1.85,4.01,3.92,7.92,5.25,12.15c0.57,1.83,1.02,3.72,0.44,5.66
				c-0.09,0.31-0.21,0.58-0.41,0.83c-0.99,0.26-2.02,0.43-2.96,0.81c-0.88,0.35-1.83,0.76-2.05,1.9c-1.77-1-3.66-1.8-5.32-3.01
				c-0.19-0.71,0.44-1.18,0.51-1.82c0.11-0.34,0.25-0.66,0.34-1.01c0.1-0.28,0.2-0.56,0.29-0.87c-0.13,0.21-0.15,0.45-0.25,0.66
				c-0.14,0.41-0.26,0.82-0.41,1.23c-0.3,0.53-0.17,1.38-1.08,1.46C16.68,86.18,16.55,86.07,16.43,85.97z"/>
			<path fill="#FECB98" d="M23.76,90.56c2.12-1.71,4.79-1.59,7.23-2.22c1.2-0.31,2.6-1.28,3.58-0.66c0.89,0.56,1.18,2.11,1.73,3.22
				c0.13,0.27,0.22,0.57,0.32,0.86c-1.26,0.55-2.31-0.49-3.5-0.47c-0.69-0.22-1.41-0.26-2.12-0.35c0.62,0.01,1.21,0.14,1.79,0.28
				c1.4,0.35,2.84,0.52,4.14,1.22c0.76,0.66,1.09,1.64,1.64,2.45c-4.71-0.56-9.22-1.89-13.59-3.74
				C24.57,90.98,24.17,90.76,23.76,90.56z"/>
			<path fill="#DB4C9B" d="M44.07,93.36c-0.12,0.29-0.3,0.52-0.59,0.64c-0.16,0.15-0.41,0.23-0.55,0.15
				c-0.84-0.49-0.19,0.37-0.4,0.44c-0.3,0.46-0.77,0.39-1.21,0.4c-0.53,0.11-1.07,0.47-1.58-0.03c-0.83-1.92-2.11-3.61-2.78-5.61
				c-0.18-0.39-0.14-0.72,0.25-0.95c0.18-0.11,0.38-0.18,0.59-0.23c0.13-0.03,0.27-0.03,0.4-0.01c0.32,0.09,0.58,0.28,0.82,0.52
				c0.14,0.13,0.28,0.25,0.44,0.35c0.42,0.17,0.69,0.53,0.99,0.84c0.21,0.18,0.41,0.36,0.62,0.55c0.27,0.62,0.85,0.93,1.29,1.36
				c0.16,0.13,0.3,0.28,0.43,0.44c0.26,0.38,0.59,0.68,1.02,0.87C43.91,93.15,44,93.25,44.07,93.36z"/>
			<path fill="#FDCB98" d="M61.75,91.46c0.04,0.65-0.49,1.19-0.33,1.85c-2.18,0.71-4.44,1.11-6.68,1.59
				c-0.3,0.06-0.62,0.05-0.8-0.29c-0.14-1.08,0.51-1.68,1.29-2.2c1.5-0.41,2.99-0.89,4.5-1.29C60.43,91.06,61.15,90.88,61.75,91.46z
				"/>
			<path fill="#DB4E9C" d="M49.32,95.27c-0.6,0.19-1.21,0.29-1.84,0.14c-0.04-0.14-0.03-0.28,0.03-0.41
				c0.64-0.93,1.59-1.57,2.2-2.53c1.96-1.6,3.41-3.7,5.15-5.52c0.14-0.06,0.29-0.07,0.45-0.05c0.33,0.13,0.45,0.41,0.49,0.74
				c0.02,0.58-0.22,1.05-0.59,1.46c-0.62,0.55-1.12,1.22-1.69,1.82C53.1,91.23,52.64,91.5,52.4,92c-0.17,0.3-0.31,0.61-0.54,0.86
				c-0.7,0.56-1.36,1.16-1.9,1.89C49.79,94.98,49.52,95.08,49.32,95.27z"/>
			<path fill="#D44D96" d="M54.89,88.94c0.4-0.32,0.56-0.77,0.62-1.27c0.39-0.41,0.26-1.34,1.16-1.24c0.5,1.07-0.46,1.71-0.73,2.55
				c-0.2,0.63-0.5,1.23-0.75,1.84c-0.52,1.48-0.93,3.02-2.17,4.11c-0.53,0.02-1.18,0.82-1.55-0.24c-0.1-0.11-0.14-0.24-0.11-0.39
				c0.17-0.41,0.52-0.65,0.86-0.9c0.31-0.23,0.62-0.46,0.68-0.89c0-0.27-0.03-0.53,0.06-0.79c0.14-0.25,0.35-0.43,0.58-0.58
				C54.15,90.5,54.5,89.7,54.89,88.94z"/>
			<path fill="#BE984C" d="M76.5,85.82c-0.12-1.18-0.23-2.35-0.35-3.53c-0.3-0.49,0.08-1.1-0.27-1.59c0.09-2-0.23-4.02,0.28-6
				c0.88,0.17,0.31,0.88,0.48,1.32c0.09,1.47-0.19,2.95,0.15,4.4c-0.07,1.73,0.24,3.41,0.66,5.08
				C77.22,85.88,76.83,85.75,76.5,85.82z"/>
			<path fill="#D74E99" d="M47.48,95.26v0.15c-1.42,0.17-2.84,0.19-4.25-0.07c2.21-0.93,4.02-2.49,5.95-3.87
				c0.54-0.38,0.94-1,1.68-1.04c0.26,1.06-0.74,1.31-1.18,1.92c-0.36,0.5-0.93,0.76-1.37,1.18c-0.39,0.51-1.17,0.6-1.35,1.32
				C47.14,95,47.36,95.06,47.48,95.26z"/>
			<path fill="#0B0607" d="M53.02,94.92c0.68-1.39,1.22-2.86,2.17-4.11c0.03,0.35-0.05,0.74,0.33,0.97
				c0.31,0.46,0.03,0.71-0.32,0.94c-0.42,0.63-0.84,1.26-1.26,1.9C53.64,94.74,53.41,95.08,53.02,94.92z"/>
			<path fill="#C6488C" d="M51.5,94.31c-0.01,0.12-0.01,0.25-0.02,0.37c-0.7,0.26-1.34,0.75-2.16,0.59
				c0.11-0.22,0.22-0.44,0.33-0.65c0.59-0.23,0.82-1.01,1.54-1.03C51.45,93.75,51.63,93.96,51.5,94.31z"/>
			<path fill="#EFC87D" d="M70.65,89.64c-0.01-1.29-0.01-2.59-0.02-3.88c0.16-0.09,0.29-0.07,0.4,0.08
				c0.21,1.01,0.28,2.03,0.27,3.05c-0.03,0.15-0.05,0.31-0.07,0.47C71.05,89.45,70.85,89.54,70.65,89.64z"/>
			<path fill="#F1D396" d="M69.08,90.48c0.34-0.91,0.35-1.86,0.32-2.81c-0.19-0.36-0.27-0.66,0.31-0.63
				c0.15,0.96-0.32,1.99,0.35,2.88C69.72,90.11,69.4,90.3,69.08,90.48z"/>
			<path fill="#F1D396" d="M16.92,86.73c0.49-0.41,0.61-1.05,0.93-1.58c0.1-0.11,0.21-0.11,0.31,0c0.07,0.74-0.36,1.31-0.65,1.93
				C17.32,86.96,17.12,86.84,16.92,86.73z"/>
			<path fill="#C19A4F" d="M71.55,87.67c0.43,0.34,0.24,0.84,0.32,1.28c-0.21,0.13-0.42,0.27-0.62,0.4
				c0.02-0.05,0.03-0.11,0.02-0.16C71.24,88.66,71.12,88.11,71.55,87.67z"/>
			<path fill="#EFC87D" d="M62.6,13.75c7.1,3.95,11.72,9.72,12.69,18.16c0.26,2.27,0.04,4.55,0.12,6.82c0.02,0.62-0.1,1.24,0.1,1.85
				c0.14,1.06,0.15,2.16,0.68,3.13c0.14,0.19,0.14,0.41,0.11,0.63c-0.16,1.5,0.12,2.92,0.74,4.42c-0.16-0.56-0.39-0.96-0.37-1.43
				c0.12-0.32,0.33-0.5,0.68-0.41c0.9,2.64,2.05,5.18,2.73,7.9c0.39,1.56,0.76,3.12,0.68,4.74c-0.25,0.55,0.01,1.18-0.23,1.73
				c-0.34,1.32-0.67,2.63-1.01,3.95c-0.08,0.14-0.16,0.14-0.25,0.01l-0.01-0.01c-0.39-0.44-0.41-0.98-0.42-1.53
				c-0.03-0.61-0.01-1.21,0-1.82c0.01-0.65,0.07-1.3-0.15-1.93c-0.61-3.68-2.31-6.89-4.21-10.01c-0.51-0.84-0.91-1.75-1.29-2.67
				c-0.11-0.59-0.09-1.22-0.37-1.77c-0.02-0.15-0.03-0.29-0.02-0.44c-0.09,0.11,0,0.22,0,0.33c-0.01,0.25,0.11,0.48,0.21,0.71
				c0.13,0.44,0.09,0.88,0.06,1.32c-0.13,0.45-0.14,0.91-0.11,1.38c0.03,0.39-0.1,0.87-0.56,0.62c-1.11-0.61-1.1,0.25-1.3,0.9
				c-0.1,0.12-0.22,0.18-0.37,0.21c-0.24,0.03-0.43-0.07-0.58-0.24c-0.23-0.29-0.36-0.63-0.48-0.98c-0.15-0.46-0.28-0.92-0.46-1.37
				c-0.05-0.12-0.09-0.25-0.13-0.38c-0.1-0.39-0.23-0.76-0.35-1.14c-0.18-0.5-0.26-1.03-0.43-1.54c-0.05-0.13-0.09-0.26-0.13-0.39
				c-0.27-0.63-0.21-1.4-0.73-1.92c-0.59,0.17-0.59,0.17-0.26,1.02c0.15,0.55,0.13,1.11,0.23,1.67c-0.05,0.61,0.06,1.22-0.02,1.82
				c-0.17,0.4-0.69,0.22-0.89,0.57c-0.23,0.54-0.03,1.07,0.06,1.6c0.03,0.31-0.01,0.6-0.25,0.82c-0.19,0.1-0.38,0.21-0.57,0.31
				c-2.04-5.86-3.67-11.81-4.14-18.07c-0.2-2.74-0.25-5.58-1.43-8.16c-0.37-0.25-0.49-0.66-0.66-1.04
				c-2.63-5.79-6.94-9.64-12.82-11.71c-0.24-0.09-0.49-0.14-0.74-0.23c-0.67-0.24-1.35-0.28-2.03-0.05
				c-0.26,0.1-0.51,0.22-0.75,0.36c-2.27,1.27-3.26,3.46-4.02,5.82c-0.14,0.41-0.27,0.83-0.38,1.25c-0.23,0.78-0.22,1.56-0.02,2.34
				c0.14,0.63,0.16,1.28,0.47,1.87c0.03,0.15,0.01,0.29-0.09,0.4c-1.31,0.49-2.6,1.1-4.05,0.68c-0.11-0.51,0.23-0.8,0.51-1.12
				c0.69-0.43,0.93-0.99,0.44-1.74c-0.31-1.22-0.8-2.41-0.71-3.71c-0.13-1.51,0.26-2.98,0.37-4.47c0.41-2.37,1.8-4.31,4.04-4.13
				c1.11-0.19,2.23-0.26,3.35-0.3c1.06-0.01,2.11-0.02,3.15,0.28c1.02,0.3,2.04,0.68,3.13,0.34c0.76-0.19,1.45,0.02,2.13,0.34
				c2.36,0.94,4.61,2.11,6.77,3.45c0.42,0.22,0.52,1.25,1.31,0.54c0.99,0.16,1.65,0.82,2.24,1.57c0.42,0.8,0.42,0.8,0.89,0.47
				c-0.14-0.42-0.51-0.72-0.52-1.19C62.23,13.92,62.44,13.87,62.6,13.75z"/>
			<path fill="#BE974B" d="M73.41,47.2c2.15,4.09,4.99,7.86,5.58,12.67c0.32,0.6-0.1,1.31,0.27,1.9c0,0.62,0,1.24,0,1.85
				c-0.35,0.49,0.02,1.1-0.26,1.6c-0.1,0.42,0.08,0.93-0.35,1.26c-0.24-0.13-0.13-0.43-0.27-0.61c0.15-2.81,0-5.65-0.73-8.33
				c-0.57-2.07-1.78-3.95-2.71-5.91c-0.53-0.66-1.11-1.29-1.42-2.11c-0.22-0.53-0.56-1.01-0.55-1.62
				C73.05,47.63,73.14,47.36,73.41,47.2z"/>
			<path fill="#BD964A" d="M74.05,64.91c-0.38,1.49-0.47,3.07-1.27,4.43c-0.24-0.14-0.3-0.37-0.31-0.63
				c0.21-1.05,0.42-2.09,0.63-3.14c0.37-0.59-0.04-1.3,0.27-1.9c0-0.22,0-0.44,0-0.66c-0.32-0.6,0.11-1.3-0.27-1.89
				c-0.62-2.31-1.24-4.63-1.86-6.94c-0.21-0.35-0.22-0.61,0.29-0.62c0.97,2.81,2.12,5.56,2.53,8.54
				C74.24,63.03,74.25,63.97,74.05,64.91z"/>
			<path fill="#F2D79F" d="M67.23,47.22c-0.09-0.63-0.51-1.26,0-1.89c-0.26-0.54-0.17-1.06,0.01-1.75c0.81,0.52,0.88,1.28,1.11,1.92
				c0.27,0.91-0.02,1.79-0.2,2.67c-0.45,0.38-0.24,0.82-0.16,1.29c0.3,1.89,0.56,3.79,0.88,6.05c-1.02-0.88-1.2-1.83-1.64-2.61
				c0.23-0.27,0.1-0.6,0.14-0.9c-0.11-1.12-0.25-2.23-0.38-3.34C66.95,48.15,66.83,47.65,67.23,47.22z"/>
			<path fill="#F1D69E" d="M73.13,47.84c0.2,0.53,0.39,1.06,0.59,1.58c0.19,0.64,0.59,1.21,0.61,1.9c-1.4,0.34-1.8-1.15-2.78-1.59
				c-0.33,0.08,0.03,0.88-0.62,0.64c0-0.05-0.01-0.1,0-0.16c0.09-0.54-0.27-1.23,0.27-1.6c0.61-0.42,0.87,0.53,1.44,0.57
				c0.11-0.56-0.53-1.21,0.18-1.69C73.08,47.47,73.21,47.55,73.13,47.84z"/>
			<path fill="#BC9549" d="M71.55,87.67c0.02,0.53,0.01,1.05-0.28,1.52c-0.75-1.06-0.17-2.26-0.35-3.39
				c-0.33-0.49,0.05-1.1-0.27-1.6c-0.03-0.42-0.34-0.84-0.03-1.27c-0.1-0.37-0.46-0.82,0.28-0.93
				C71.12,83.9,71.34,85.79,71.55,87.67z"/>
			<path fill="#F1D295" d="M80.2,81.04c0.34-1.88,0.34-3.78,0.3-5.69c-0.12-0.34,0.03-0.39,0.31-0.32c0.57,2.04,0.31,4.03-0.31,6
				C80.4,81.15,80.3,81.15,80.2,81.04z"/>
			<path fill="#C29B50" d="M71.53,53.56c-0.24,0.14-0.28,0.37-0.29,0.62c-0.63-0.72-0.97-1.55-0.94-2.52
				c0.04-0.19,0.15-0.3,0.33-0.34C71.04,52.02,71.39,52.75,71.53,53.56z"/>
			<path fill="#F1D397" d="M68.16,48.17c-0.64-0.84,0.2-1.68-0.01-2.52c0.07-0.02,0.14-0.04,0.2-0.06c0.41,0.26,0.39,0.76,0.58,1.14
				c0.08,0.3,0.16,0.59,0.12,0.9c-0.08,0.31-0.14,0.65-0.58,0.54C68.37,48.18,68.26,48.18,68.16,48.17z"/>
			<path fill="#C19B4F" d="M76.51,76.01c-0.07-0.45,0.13-0.97-0.34-1.31c0.06-0.66-0.05-1.4,0.93-1.73
				c-0.29,1.04-0.33,2.01-0.3,2.98C76.72,76.11,76.63,76.12,76.51,76.01z"/>
			<path fill="#EFC87D" d="M76.51,76.01c0.09-0.02,0.19-0.04,0.29-0.05c0,1.49,0,2.97,0,4.46C76.2,78.99,76.63,77.48,76.51,76.01z"
				/>
			<path fill="#BC964A" d="M78.38,65.88c0.23,0.14,0.27,0.37,0.27,0.61c0.01,0.56,0.04,1.13-0.47,1.65
				C77.99,67.32,77.92,66.59,78.38,65.88z"/>
			<path fill="#C59F53" d="M70.94,75.36c-0.09,0.66,0.24,1.41-0.63,2.28c0.26-1.08-0.26-1.87,0.35-2.59
				C70.92,74.98,71.09,75.03,70.94,75.36z"/>
			<path fill="#F0CF8C" d="M69.7,87.04c-0.25,0.14-0.3,0.37-0.31,0.63c-0.6-0.8-0.2-1.67-0.08-2.55
				C69.44,85.77,69.57,86.41,69.7,87.04z"/>
			<path fill="#C9A257" d="M70.94,75.36c-0.1-0.11-0.19-0.21-0.29-0.32c0.1-0.63,0.2-1.27,0.3-1.9c0.33-0.17,0.43,0.13,0.59,0.31
				C71.33,74.08,71.39,74.8,70.94,75.36z"/>
			<path fill="#EFC87D" d="M81.45,75.6c0.42,1.23,0.39,2.45,0.01,3.68C81.46,78.06,81.46,76.83,81.45,75.6z"/>
			<path fill="#BB9448" d="M70.63,51.32c-0.11,0.11-0.22,0.22-0.33,0.34c-0.39-0.2-0.61-0.51-0.61-0.97
				c0.01-0.07,0.01-0.14,0.02-0.21c0.12-0.25,0.22-0.53,0.59-0.4c0.1,0.1,0.21,0.2,0.31,0.31c0.12,0.05,0.16,0.11,0.14,0.18
				c-0.02,0.08-0.05,0.12-0.09,0.12C70.65,50.9,70.64,51.11,70.63,51.32z"/>
			<path fill="#BC9549" d="M72.48,68.71c0.25,0.13,0.31,0.37,0.31,0.63c-0.11,0.42-0.22,0.83-0.33,1.25
				c-0.6,0.19-0.32-0.45-0.56-0.61C72.09,69.56,72.28,69.13,72.48,68.71z"/>
			<path fill="#EFC87D" d="M74.33,51.33c-0.45-0.55-0.6-1.21-0.61-1.9c0.49,0.69,1,1.36,1.21,2.22
				C74.73,51.54,74.53,51.44,74.33,51.33z"/>
			<path fill="#C7A054" d="M71.9,69.98c0.19,0.2,0.37,0.41,0.56,0.61c-0.19,0.43-0.39,0.86-0.58,1.29c-0.1,0.15-0.21,0.15-0.31,0
				C71.68,71.24,71.79,70.61,71.9,69.98z"/>
			<path fill="#EFC87D" d="M68.44,65.06c-0.3-1.08-0.23-2.19-0.23-3.29C68.75,62.83,68.36,63.96,68.44,65.06z"/>
			<path fill="#F2D69E" d="M66.31,50.07c0-0.32,0-0.63,0-0.95c0.13-0.08,0.27-0.1,0.41-0.04c0.67,0.44,0.43,1.21,0.63,1.82
				c-0.04,0.25-0.19,0.38-0.43,0.44C66.43,51.06,66.8,50.35,66.31,50.07z"/>
			<path fill="#ECCA86" d="M68.47,48.18c0.25-0.14,0.3-0.38,0.31-0.64c0.2-0.19,0.41-0.19,0.62-0.01c0,0.09,0,0.19,0,0.28
				c-0.09,0.55,0.45,1.06,0.07,1.62c-0.13,0.08-0.25,0.07-0.38,0C68.88,49.02,68.67,48.6,68.47,48.18z"/>
			<path fill="#EFC87D" d="M74.05,64.91c0-0.94,0-1.88,0-2.81C74.49,63.03,74.49,63.97,74.05,64.91z"/>
			<path fill="#C7A055" d="M70.91,82.01c-0.35,0.23-0.26,0.6-0.28,0.93c-0.55-0.51-0.14-1.2-0.56-1.84
				C70.83,81.21,70.9,81.58,70.91,82.01z"/>
			<path fill="#C69F54" d="M71.57,71.87c0.1,0,0.21,0,0.31,0c-0.11,0.52-0.22,1.05-0.34,1.57c-0.2-0.1-0.39-0.21-0.59-0.31
				C71.16,72.72,71.36,72.3,71.57,71.87z"/>
			<path fill="#F2D8A3" d="M66.92,51.34c0.1-0.11,0.2-0.22,0.31-0.32c0.31,0.36,0.62,0.73,0.32,1.26c-0.01,0.26-0.05,0.49-0.3,0.63
				C67.14,52.38,67.03,51.86,66.92,51.34z"/>
			<path fill="#EFC87D" d="M79.28,65.24c0.08,0,0.17,0,0.25-0.01c0,0.84,0,1.68,0,2.52C79.02,66.96,79.38,66.08,79.28,65.24z"/>
			<path fill="#F1D192" d="M80.2,81.04c0.1,0,0.2,0,0.3,0c-0.14,0.54-0.29,1.09-0.48,1.85C79.88,82.08,79.71,81.52,80.2,81.04z"/>
			<path fill="#F2D49A" d="M70.65,50.69c-0.02-0.1-0.04-0.2-0.05-0.3c0.11,0,0.22-0.01,0.33-0.01c0.4-0.02,0.07-0.77,0.62-0.64
				C71.43,50.24,72.03,51.45,70.65,50.69z"/>
			<path fill="#F1D293" d="M80.81,75.03c-0.1,0.11-0.2,0.21-0.31,0.32c-0.51-0.45-0.23-1.05-0.31-1.58c0.1-0.11,0.21-0.11,0.31,0
				C80.61,74.19,80.71,74.61,80.81,75.03z"/>
			<path fill="#F0D090" d="M69.09,49.43c0.1,0,0.19,0,0.29,0c0.11,0.07,0.2,0.17,0.26,0.29c0.09,0.32,0.19,0.63,0.12,0.97
				l-0.07-0.01C69.04,50.5,68.6,50.2,69.09,49.43z"/>
			<path fill="#EFC87D" d="M73.37,63.67c-0.03,0.64,0.22,1.33-0.27,1.9C73.19,64.94,72.87,64.24,73.37,63.67z"/>
			<path fill="#EFC87D" d="M68.21,70.6c-0.04-0.69-0.09-1.38,0.22-2.02C68.39,69.26,68.69,69.97,68.21,70.6z"/>
			<path fill="#EFC87D" d="M73.1,61.12c0.5,0.57,0.24,1.25,0.27,1.89C72.87,62.44,73.19,61.75,73.1,61.12z"/>
			<path fill="#EFCC86" d="M80.51,73.77c-0.1,0-0.21,0-0.31,0c-0.33-0.26-0.38-0.58-0.21-0.99C80.43,72.98,80.45,73.39,80.51,73.77z
				"/>
			<path fill="#EFC87D" d="M75.88,80.7c0.45,0.46,0.25,1.05,0.27,1.59C75.68,81.83,75.95,81.24,75.88,80.7z"/>
			<path fill="#C19A4F" d="M70.66,84.21c0.47,0.46,0.22,1.06,0.27,1.6c-0.1-0.02-0.19-0.03-0.29-0.05
				C70.65,85.24,70.65,84.72,70.66,84.21z"/>
			<path fill="#EFC87D" d="M79,65.24c0.02-0.55-0.18-1.13,0.26-1.6c0,0.53,0,1.06,0,1.6C79.18,65.23,79.09,65.24,79,65.24z"/>
			<path fill="#FECB98" d="M61.43,39.89c0.53,1.84,1.06,3.67,1.63,5.66c-1.11-0.17-1.84-0.75-2.64-1.12
				c-3.35-1.55-8.27,0.06-9.73,3.22c-0.37,0.81-0.83,1.7,0.5,2.11c1.2,0.63,2.46,0.29,3.7,0.24c0.44,0.03,0.86,0.39,1.33,0.12
				c0.77-0.01,1.56-0.15,2.31-0.02c2.21,0.39,3.95-0.17,5.1-2.66c1.29,3.87,2.78,7.4,2.9,11.12c0.1,2.94-0.9,5.92-2.45,8.5
				c-2.04,3.41-5.01,5.97-7.95,8.54c-1.25,1.09-2.58,2.09-3.76,3.26c-1.03,1.03-2.22,1.48-3.6,1.54c-1.23,0.06-2.47,0.04-3.7,0.07
				c-2.11,0.05-3.81-0.71-5.36-2.26c-2.64-2.64-5.72-4.8-8.23-7.6c-2.15-2.4-3.78-5.03-4.51-8.29c-0.92-4.14-2.4-8.16-2.09-12.53
				c0.12-1.67,0.6-3.32,0.36-5.02c-0.09-0.6,0.43-0.77,0.72-1.11c1.56-1.81,3.06-3.67,4.06-5.89c-0.04-0.62,0.39-0.95,0.76-1.32
				c1.57-3.23,2.37-6.73,3.43-10.14c0.31-0.99,0.74-1.38,1.7-1.6c2.4-0.56,4.83-0.89,7.25-1.26c2.05-0.16,4.11-0.17,6.16,0.01
				c3.36,0.49,6.73,0.92,9.72,2.8c0.57,0.35,0.79,0.68,0.87,1.29c0.45,3.69,0.92,7.39,1.38,11.08c-0.64,0.53-1.16-0.03-1.7-0.24
				c-2.32-0.88-4.64-0.75-6.96-0.08c-0.54,0.16-1.06,0.41-1.48,1.08c0.71,0.03,1.24-0.25,1.78-0.44c2.16-0.77,4.33-0.8,6.52-0.23
				C60.23,38.93,60.92,39.24,61.43,39.89z"/>
			<path fill="#EFC87C" d="M36.39,21.32c1.02,1.03-0.25,1.11-0.62,1.57c-0.31,0.22-0.65,0.38-0.99,0.52
				c-1.3,1.84-1.48,4.1-2.18,6.17c-0.71,2.08-1.39,4.17-2.09,6.26c-0.25,0.67-0.23,1.49-0.98,1.89c-1.81,2.68-3.48,5.49-6.55,7.22
				c1.89-0.65,1.65,0.56,1.58,1.53c-0.1,1.31-0.45,2.57-0.98,3.97c-1.01-1.4-1.36-3-1.98-4.47c-0.08-0.19-0.16-0.38-0.22-0.58
				c-0.8-2.5-1.18-2.59-2.89-0.69c-0.28-0.21,0.12-0.43-0.01-0.64c-0.32-1.06,0.29-2.02,0.34-3.03c0.3-0.77,0.28-1.6,0.41-2.4
				c-0.04-0.22-0.17-0.09-0.11-0.01c0.27,0.39-0.09,0.76-0.11,1.16c-0.09,0.15-0.21,0.23-0.38,0.24c-0.52-0.3-0.49-0.82-0.53-1.32
				c0.22-3.09,0.76-6.11,1.73-9.26c-0.9,2.61-1.23,5.12-1.64,7.62c-0.07,0.4,0.05,0.87-0.46,1.06c-0.55-0.41-0.27-0.95-0.2-1.45
				c0.12-7.12,2.25-13.37,7.56-18.23c0.71-0.65,1.41-1.3,2.31-1.65c0.12,0.08,0.19,0.19,0.22,0.33c0.01,0.55-0.41,1.03-0.22,1.6
				c-1.12,3.34-2.43,6.6-3.2,9.57c0.98-2.7,1.67-6.01,3.23-8.99c0.15-0.28,0.26-0.57,0.5-0.78c0.37-0.11,0.71-0.27,0.96-0.59
				c0.34-0.33,0.65-0.7,1.02-1c0.31-0.22,0.64-0.32,1-0.12c1.1,0.36,2.25-0.02,3.36,0.25c0.23,0.06,0.5-0.01,0.72,0.14
				C35.67,18.49,35.67,20.03,36.39,21.32z"/>
			<path fill="#D1AA5F" d="M39.14,23.15c0-0.08,0-0.16-0.01-0.24c-0.22-0.68-0.32-1.38-0.33-2.09c-0.11-0.81-0.09-1.61,0.03-2.42
				c-0.03-0.39,0.13-0.78,0.03-1.17c0.77-2.51,1.64-4.96,4.32-6.03c2.04-0.8,3.87,0.14,5.57,0.97c4.47,2.19,7.88,5.61,10.23,10.09
				c0.5,0.96,0.84,2.01,0.53,3.15c-1.85-0.21-3.35-1.48-5.2-1.76c-1.82-0.28-3.62-0.68-5.47-0.78c-1.82-0.2-3.64-0.22-5.47,0
				C41.95,22.69,40.57,23.43,39.14,23.15z"/>
			<path fill="#D1AA5F" d="M57.99,85.45c-1.1-0.64-2.17-1.33-3.51-1.27c-0.27,0.01-0.48-0.1-0.65-0.33
				c-0.75-1.01-0.52-3.94,0.45-4.81c2.13-1.9,4.42-3.6,6.42-5.65c2.59-2.64,5.13-5.32,6.13-9.09c0.03-0.13,0.17-0.22,0.36-0.45
				c-0.19,6.6-1.04,12.94-2.84,19.13c-0.04,0.15-0.12,0.29-0.16,0.44c-1.1,3.99-1.1,3.99-4.97,2.62c-0.71-1.36-0.39-2.9-0.77-4.32
				c-0.07-0.34-0.34-0.64-0.22-1.02c-0.15,0.46,0.2,0.82,0.24,1.23c0.22,0.69,0.14,1.42,0.25,2.13
				C58.8,84.62,58.83,85.32,57.99,85.45z"/>
			<path fill="#FECB98" d="M53.34,85.81c-0.11,0.15-0.23,0.31-0.36,0.47c-1.75,2.17-3.86,3.92-6.09,5.53
				c-0.44,0.32-0.78,0.35-1.24,0.03c-2.16-1.53-4.29-3.09-5.91-5.26c-0.35-0.47-0.74-0.75,0.11-1.28c1.05-0.66,0.88-2.05,1.06-3.14
				c0.14-0.82,0.32-0.82,1.04-0.65c2.99,0.73,6.01,0.72,9-0.04c0.59-0.15,0.93-0.26,1.05,0.55c0.18,1.24-0.07,2.68,1.29,3.48
				C53.34,85.54,53.32,85.68,53.34,85.81z"/>
			<path fill="#D1AA5F" d="M27.39,67.78c2.83,4.06,6.36,7.37,10.21,10.39c1.01,0.8,2.18,1.58,1.9,3.3
				c-0.23,1.44-0.03,2.98-2.26,2.83c-0.61-0.04-1.5,0.26-2.07,0.87c-0.82,0.37-1.12-0.32-1.43-0.81c-2-3.21-4.45-6.12-5.85-9.73
				c-0.73-1.9-0.86-3.86-1.12-5.82C26.72,68.4,26.7,67.81,27.39,67.78z"/>
			<path fill="#D1AA5F" d="M20.66,65.26c-0.15-0.86-0.83-1.59-0.65-2.54c-0.83-1.02-0.6-2.26-0.66-3.44
				c0.21-0.53-0.31-1.36,0.61-1.61c1.43,1.76,2.66,3.75,5.13,4.18c0.39,0.07,0.4,0.55,0.5,0.9c0.39,1.35,0.81,2.69,1.22,4.03
				c0.28,1.75,0.07,3.54,0.4,5.28c0.59,3.09,1.99,5.8,3.84,8.28c1.02,1.38,1.89,2.86,2.85,4.28c0.23,0.34,0.47,0.7,0.31,1.16
				c-0.13,0.28-0.36,0.31-0.63,0.29c-1.13-1.04-2.18-2.19-3.54-2.94c-0.62-0.4-1.36-0.59-1.87-1.16c-1.57-4.88-3.85-9.44-6.06-14.04
				c-0.2-0.32-0.28-0.69-0.47-1.01C21.31,66.37,21.12,65.73,20.66,65.26z"/>
			<path fill="#FAC896" d="M24.27,57.68c0.21,0.79,0.41,1.58,0.73,2.79c-2.88-1.78-4.65-4.03-5.3-6.93
				c-0.65-2.87-1.43-5.9,0.68-8.91c0.24,0.84,0.41,1.39,0.57,1.95c0.31,1.06-0.26,2.03-0.26,3.08c-0.01,2.75,0.93,5.02,2.8,6.93
				C23.72,56.98,23.97,57.35,24.27,57.68z"/>
			<path fill="#FCC997" d="M55.81,91.48c0.74-1.12,1.02-2.49,1.89-3.56c0.41-0.5,0.68-0.63,1.25-0.38c0.51,0.22,1.07,0.31,1.61,0.44
				c2.3,0.57,2.3,0.57,1.4,2.84c-0.91,0.56-2,0.26-2.95,0.63c-0.67,0.21-1.37,0.35-2.05,0.53C56.52,92.12,55.91,92.3,55.81,91.48z"
				/>
			<path fill="#020201" d="M59.51,25.4c-0.51-2.92-1.99-5.29-3.96-7.4c-2.55-2.73-5.26-5.19-8.93-6.29
				c-1.14-0.34-2.28-0.45-3.44-0.53c0.04-0.41,0.36-0.28,0.6-0.31c0.72-0.24,1.44-0.24,2.16,0c2.92,0.44,5.34,1.93,7.54,3.81
				c2.09,1.79,4.08,3.72,5.46,6.19c0.57,1.02,1.01,2.1,1.23,3.26C59.49,24.31,60.24,25.26,59.51,25.4z"/>
			<path fill="#DA8C69" d="M23.38,56.96c-2.29-1.44-4.21-6.83-2.43-10.38c0.57,0.75,0.81,1.62,0.94,2.53
				c0.15,0.61-0.17,1.17-0.2,1.77c-0.02,0.2-0.16,0.38-0.1,0.59c0-0.1,0.01-0.2,0.05-0.3c0.17-0.45-0.03-1.17,0.8-1.08
				c1.33,2.12,1.03,4.64,1.6,6.95C23.8,57.22,23.57,57.23,23.38,56.96z"/>
			<path fill="#5D8AB3" d="M53.94,45.92c0.29-0.48,0.73-0.63,1.25-0.6c0.28,0.3,0.37,0.67,0.39,1.07c0.02,0.21,0,0.42,0.02,0.63
				c0.05,0.6,0.31,1.08,0.97,0.87c0.73-0.23,0.71-0.8,0.35-1.39c-0.08-0.13-0.21-0.23-0.33-0.33c-0.42-0.38-1.02-0.43-1.41-0.86
				c0.98-0.67,2.05-0.36,3.09-0.28c1.36,1.31,1.47,2.12,0.51,3.89c0.5,0.31,1.25-0.08,1.61,0.59c-1.6,0.51-3.25,0.04-4.87,0.29
				c-0.15,0.09-0.31,0.11-0.48,0.07C53.25,48.8,52.85,47.38,53.94,45.92z"/>
			<path fill="#8E693A" d="M61.43,39.89c-3.16-1.45-6.33-1.45-9.54-0.15c-0.43,0.18-1.07,0.7-1.35,0.12
				c-0.3-0.62,0.26-1.19,0.85-1.46c2.73-1.26,5.51-1.46,8.35-0.39c0.53,0.2,1.04,0.42,1.56,0.64
				C61.34,39.06,61.39,39.47,61.43,39.89z"/>
			<path fill="#BC964A" d="M22.17,67.76c2.45,4.58,4.99,9.12,6.2,14.26c0.87,1.77,1.25,3.54-0.02,5.3
				c-0.21,0.02-0.41,0.04-0.62,0.06c0.94-4.82-1.24-8.9-3-13.06c-0.83-1.97-1.72-3.92-2.58-5.88C22,68.2,21.99,67.98,22.17,67.76z"
				/>
			<path fill="#BC9549" d="M34.21,85.79c-1.58-2.38-3.13-4.79-4.75-7.14c-2.47-3.59-2.91-7.64-2.65-11.86
				c0.19,0.33,0.38,0.66,0.57,0.99c-0.47,2.21,0.02,4.35,0.75,6.37c1.4,3.87,4.03,6.99,6.21,10.39c0.2,0.32,0.41,0.61,0.82,0.62
				C34.85,85.37,34.53,85.58,34.21,85.79z"/>
			<path fill="#F7F7F8" d="M60.4,49.51c-0.71-0.04-1.42-0.07-2.29-0.12c1.28-1.47,1.12-2.91,0.17-4.35
				c1.03,0.11,1.93,0.52,2.69,1.24C62.21,47.46,62,48.68,60.4,49.51z"/>
			<path fill="#FAFBFA" d="M53.94,45.92c-0.62,1.59-0.12,2.81,1.19,3.77c-0.31,0.51-0.89,0.31-1.31,0.52
				c-0.93,0.19-1.83,0.33-2.31-0.81c-0.69-0.97,0.15-1.54,0.61-2.13C52.58,46.66,53.14,46.09,53.94,45.92z"/>
			<path fill="#EDC77B" d="M28.36,87.32c0.62-1.77,0.17-3.54,0.02-5.3c0.7,0.11,1.32,0.4,1.82,0.93c0.17,0.16,0.23,0.36,0.24,0.58
				c-0.02,0.72,0.14,1.42,0.19,2.14c0.1,0.53,0.2,1.06-0.43,1.34C29.58,87.11,28.97,87.21,28.36,87.32z"/>
			<path fill="#CB4690" d="M48.1,93.36c0.85-1.04,2.17-1.62,2.76-2.93c1.15-1.23,2.3-2.47,3.45-3.7c0.32-0.13,0.48,0.04,0.59,0.32
				c-1.17,1.93-2.6,3.62-4.32,5.05c-0.23,0.19-0.42,0.42-0.63,0.64c-0.52,0.24-0.8,0.9-1.48,0.85C48.32,93.55,48.2,93.48,48.1,93.36
				z"/>
			<path fill="#EAC478" d="M30.19,83.54c0-0.2,0-0.4,0-0.59c1.41,0.73,2.76,1.53,3.4,3.13c-0.79,0.35-1.6,0.6-2.46,0.64
				c-0.56-0.31-0.58-0.86-0.62-1.41C30.57,84.68,30.2,84.15,30.19,83.54z"/>
			<path fill="#CE4892" d="M40.44,89.87c-0.43-0.2-0.86-0.41-1.29-0.61c-0.1-0.11-0.2-0.21-0.31-0.31
				c-0.21-0.21-0.41-0.43-0.62-0.64c-0.11-0.09-0.23-0.16-0.37-0.19c-0.06-0.04-0.12-0.08-0.18-0.12c-0.11-0.1-0.19-0.22-0.26-0.34
				c-0.06-0.13-0.1-0.27-0.14-0.42c0.04-0.42-0.44-1,0.35-1.18C38.4,87.45,40.13,88.11,40.44,89.87z"/>
			<path fill="#BC964C" d="M57.99,85.45c0.88-1.2,0.03-2.53,0.29-3.78c-0.12-0.34,0.03-0.39,0.31-0.32
				c0.38,1.54,0.73,3.08,0.63,4.69C58.71,86.05,58.31,85.84,57.99,85.45z"/>
			<path fill="#CB4690" d="M44.07,93.36c-0.09,0.01-0.17,0.02-0.26,0.02c-0.36-0.39-0.77-0.71-1.26-0.93
				c-0.11-0.11-0.22-0.23-0.32-0.34c-0.15-0.39-0.72-0.67-0.3-1.21c1.27,0.05,1.92,1.16,2.87,1.77
				C45.22,92.93,45.13,93.07,44.07,93.36z"/>
			<path fill="#DF4E9E" d="M37.6,87.35c0,0.11,0.01,0.23,0.01,0.34c0.09,0.1,0.14,0.22,0.15,0.36c0,0.2-0.01,0.4-0.16,0.56
				c-0.45,0.02-0.62,0.31-0.65,0.72c-0.5-0.6-0.64-1.38-0.99-2.04c-0.39-0.73,0.09-0.86,0.44-1.17
				C37.26,86.06,37.17,86.98,37.6,87.35z"/>
			<path fill="#E4915F" d="M55.81,91.48c1.1,0.61,2.08-0.16,3.11-0.29c0.17,0.18,0.48,0.04,0.63,0.28c-1.4,0.6-2.84,1.03-4.35,1.24
				c0.13-0.3,0.44-0.55,0.32-0.94C55.62,91.68,55.71,91.58,55.81,91.48z"/>
			<path fill="#E58E5B" d="M36.93,92.45c-1.48-0.05-2.81-0.78-4.25-1.03c-0.05-0.27-0.02-0.44,0.31-0.29
				c1.26-0.1,2.4,0.55,3.63,0.63C36.73,91.99,36.83,92.22,36.93,92.45z"/>
			<path fill="#BC964B" d="M19.96,57.67c-0.44,0.46-0.19,1.04-0.26,1.56c-0.49,0.53,0.34,1.5-0.59,1.88
				c-0.45-1.44-0.05-2.8,0.34-4.16C19.62,57.19,19.79,57.43,19.96,57.67z"/>
			<path fill="#060503" d="M49.33,23.47c-2.05,0-4.11,0-6.16-0.01C45.22,23.03,47.27,23.03,49.33,23.47z"/>
			<path fill="#CB4690" d="M56.67,86.43c-0.57,0.24-0.55,1.05-1.16,1.24c-0.01-0.26-0.06-0.49-0.31-0.63
				c-0.32-0.31-0.09-0.65-0.06-0.98C55.77,85.66,56.36,85.4,56.67,86.43z"/>
			<path fill="#27211B" d="M51.51,49.4c0.65,0.69,1.47,0.7,2.31,0.63c0.39-0.01,0.88-0.43,1.06,0.31c-1.28,0.15-2.67,0.95-3.7-0.58
				C51.29,49.64,51.4,49.52,51.51,49.4z"/>
			<path fill="#060503" d="M43.38,22.86c1.82-0.41,3.64-0.34,5.46-0.01C47.02,22.86,45.2,22.86,43.38,22.86z"/>
			<path fill="#E6905D" d="M59.55,91.48c-0.21-0.09-0.42-0.19-0.63-0.28c1.02-0.09,1.99-0.5,3.04-0.37c0.03,0.24,0.08,0.49-0.2,0.63
				C61.02,91.47,60.28,91.47,59.55,91.48z"/>
			<path fill="#9D8452" d="M17.8,51.03c-0.09-0.11-0.18-0.22-0.27-0.33c-0.76-0.87-0.21-1.87-0.26-2.81
				c0.04-0.41,0.15-0.77,0.56-0.95C17.82,48.31,17.81,49.67,17.8,51.03z"/>
			<path fill="#060503" d="M29.52,37.72c0.17-0.71,0.6-1.29,0.98-1.89c0.09,0.21,0.18,0.43,0.27,0.64c0.06,0.63-0.4,0.94-0.76,1.32
				C29.85,37.76,29.68,37.74,29.52,37.72z"/>
			<path fill="#712850" d="M37.6,87.35c-0.61-0.19-0.75-0.86-1.2-1.22c0.37-0.58,0.79-0.46,1.23-0.08
				C37.2,86.47,37.79,86.92,37.6,87.35z"/>
			<path fill="#CD4791" d="M42.53,94.59c-0.35-0.44-0.7-0.87-1.19-1.48c0.92,0.15,1.31,1.13,2.14,0.9
				C43.24,94.33,42.9,94.48,42.53,94.59z"/>
			<path fill="#7B3024" d="M21.51,50.95c-0.02-0.65,0.04-1.27,0.38-1.84c0.19,0.33,0.37,0.65,0.56,0.98
				c-0.59,0.2-0.53,0.76-0.63,1.23C21.52,51.36,21.37,51.29,21.51,50.95z"/>
			<path fill="#AF3D7D" d="M41.93,90.89c0.1,0.4,0.2,0.81,0.3,1.21c-0.59-0.42-1.26-0.78-1.18-1.69
				C41.5,90.28,41.61,90.8,41.93,90.89z"/>
			<path fill="#302820" d="M54.88,50.34c-0.28-0.35-0.7-0.24-1.06-0.31c0.44-0.11,0.88-0.23,1.31-0.34c0.13,0.04,0.27,0.08,0.4,0.11
				c0.22,0.11,0.45,0.21,0.67,0.32C55.79,50.39,55.33,50.36,54.88,50.34z"/>
			<path fill="#B28E49" d="M30.78,85.17c0.04,0.53,0,1.08,0.34,1.54c-0.29,0.16-0.57,0.37-0.93,0.29c0.37-0.39,0.25-0.8,0.05-1.22
				C30.46,85.62,30.18,84.98,30.78,85.17z"/>
			<path fill="#CB4790" d="M55.14,86.07c0.44,0.3-0.05,0.66,0.06,0.98c-0.1,0-0.2,0-0.3,0c-0.2-0.11-0.39-0.21-0.59-0.32
				C54.37,86.23,54.67,86.03,55.14,86.07z"/>
			<path d="M34.77,23.4c0.12-0.6,0.57-0.54,0.99-0.52c-0.23,0.32-0.46,0.63-0.68,0.95C34.98,23.69,34.88,23.55,34.77,23.4z"/>
			<path fill="#772B20" d="M23.38,56.96c0.22,0.02,0.45,0.05,0.67,0.07c0.24,0.16,0.24,0.4,0.23,0.65
				C23.88,57.56,23.44,57.51,23.38,56.96z"/>
			<path fill="#C09A4F" d="M28.33,18.45c-1.71,2.54-2.38,5.52-3.38,8.37c-0.35,1-0.73,1.98-1.28,2.9c0.85-3.85,2.08-7.56,3.48-11.22
				c-0.01-0.45,0.33-0.74,0.48-1.11c0.15-0.64,0.64-1.05,0.99-1.54c0.36-0.6,1.03-0.78,1.55-1.17c0.99-0.46,1.99-0.9,3.1-0.47
				c0.43,0.17,0.99,0.37,0.89,0.92c-0.09,0.55-0.66,0.31-1.04,0.32c-0.26,0.01-0.51-0.01-0.76,0.05c-0.83,0.16-1.58,0.47-2.19,1.09
				c-0.14,0.14-0.3,0.27-0.44,0.41c-0.23,0.24-0.46,0.49-0.69,0.72C28.77,17.93,28.61,18.26,28.33,18.45z"/>
			<path fill="#EFD49C" d="M17.27,47.89c0.46,0.9,0.15,1.87,0.26,2.81c-1.47,2.11-2.17,4.58-3.08,6.95
				c-0.81-0.11-0.41-0.68-0.34-1.06c0.16-0.87,0.51-1.69,0.61-2.57C15.32,51.87,16.33,49.9,17.27,47.89z"/>
			<path fill="#DFBB75" d="M32.05,15.31c0.58-0.71,1.3-0.05,2.02-0.2c-1.23-1.28-2.62-0.3-3.89-0.44c1.26-1.25,2.91-1.69,4.61-2.45
				c0,0.67,0,1.18,0,1.69c-0.38,0.87,0.85,1.59,0.24,2.48c-0.77,0.49-1.34-0.68-2.1-0.25c-0.21-0.02-0.41-0.09-0.6-0.2
				c-0.12-0.07-0.23-0.16-0.33-0.27C31.92,15.55,31.94,15.43,32.05,15.31z"/>
			<path fill="#EFD8A8" d="M58.28,13.09c-2.23-0.96-4.15-2.57-6.52-3.26c-0.13-0.04-0.18-0.34-0.27-0.52c1.5,0.23,2.92,0.7,4.32,1.3
				c0.4,0.21,0.73,0.53,1.13,0.74c0.54,0.39,1.13,0.73,1.44,1.37C58.42,12.86,58.38,12.99,58.28,13.09z"/>
			<path fill="#F0D8A8" d="M49.37,8.97c-0.33,1.11-1.02,0.62-1.71,0.46c-1.38-0.33-2.72-0.9-4.19-0.77
				c-0.58-0.41-1.31,0.1-1.89-0.32c1-0.66,2.08-0.24,3.13-0.25c0.61,0.29,1.31-0.07,1.92,0.24C47.51,8.67,48.55,8.32,49.37,8.97z"/>
			<path fill="#F1DBAE" d="M61.68,15.01c-0.72-0.53-1.44-1.07-2.16-1.6c-0.51-0.08-0.76-0.53-1.11-0.82
				c-0.42-0.34-0.92-0.62-1.12-1.18c0.02-0.07,0.04-0.13,0.06-0.2c0.61-0.01,1.02,0.46,1.55,0.65c1.14,0.72,2.32,1.38,3.39,2.2
				c0.31,0.42,0.62,0.84,0.93,1.26C62.65,16.04,62.43,15.99,61.68,15.01z"/>
			<path fill="#080704" d="M34.77,16.55c0.17-0.87-0.36-1.75,0.02-2.62c0.05,0.34,0.05,0.77,0.58,0.41
				c0.55,1.01-0.03,2.14,0.33,3.17c-0.13,1.34,0.76,2.48,0.69,3.81c-1.18-1.11-1.14-2.71-1.61-4.1
				C34.61,16.99,34.61,16.77,34.77,16.55z"/>
			<path fill="#0D0B07" d="M18.71,39.93c0.04-0.09,0.08-0.18,0.11-0.28c0.77,0.28,0.34,0.86,0.31,1.34
				c-0.02,1.07-0.21,2.1-0.67,3.07c-0.24-0.01-0.47-0.03-0.71-0.04c-0.23-0.34-0.2-0.71-0.15-1.09c0.08-0.35,0.18-0.7,0.25-1.06
				c0.02-0.14,0.06-0.28,0.11-0.42C18.15,40.92,18.26,40.34,18.71,39.93z"/>
			<path fill="#EFCD89" d="M14.72,54.02c0.18,0.89-0.23,1.7-0.39,2.54c-0.08,0.4-0.31,0.77,0.12,1.09
				c-0.07,0.97,0.26,2.04-0.59,2.84C13.49,58.24,13.78,56.09,14.72,54.02z"/>
			<path fill="#EFC87D" d="M75.51,40.58c-0.56-1.98-0.13-4.01-0.25-6.02c-0.05-0.88,0.01-1.77,0.02-2.65
				C75.66,34.79,75.4,37.69,75.51,40.58z"/>
			<path fill="#E2BC74" d="M17.5,36.67c0.13,0.45-0.11,1,0.32,1.38c0.53,0.49,0.28,1.13,0.31,1.71c-0.09,0.49-0.19,0.97-0.22,1.47
				c-0.13,0.48,0.02,1-0.24,1.45c-0.09,0.18-0.22,0.21-0.39,0.11C17.26,40.75,16.99,38.7,17.5,36.67z"/>
			<path fill="#F1DAA9" d="M62.29,14.04c-1.47-0.19-2.36-1.31-3.39-2.2c1.35,0.41,2.6,1,3.7,1.91C62.5,13.85,62.4,13.94,62.29,14.04
				z"/>
			<path fill="#EFC87D" d="M77.36,46.92c-0.18,0.1-0.36,0.21-0.54,0.31c-0.65-0.84-0.79-1.8-0.64-2.83
				c0.01-0.23,0.01-0.45,0.02-0.68C76.58,44.78,76.97,45.85,77.36,46.92z"/>
			<path fill="#120F0A" d="M35.7,17.51c-0.55-1.01-0.1-2.13-0.33-3.17c0.15-0.51-0.12-1.11,0.32-1.56
				C35.69,14.36,35.7,15.94,35.7,17.51z"/>
			<path fill="#F1D293" d="M41.58,8.34c0.63,0.12,1.33-0.24,1.89,0.32c-1.25,0-2.49,0-3.74-0.01C40.24,7.87,40.98,8.54,41.58,8.34z"
				/>
			<path fill="#F4DDAD" d="M28.63,15.85c0.06,0.76-0.55,1.15-0.9,1.69c-0.19-0.03-0.22-0.21-0.3-0.34c-0.02-0.13-0.04-0.27-0.06-0.4
				C27.71,16.37,27.85,15.67,28.63,15.85z"/>
			<path fill="#D0AD67" d="M17.28,42.79c0.08,0,0.16,0,0.25,0.01c0.12-0.11,0.23-0.11,0.34,0.01c-0.04,0.4-0.08,0.81-0.12,1.21
				c-0.19,0.1-0.44,0.62-0.52-0.05C17.18,43.59,17.26,43.19,17.28,42.79z"/>
			<path fill="#EFCB84" d="M56.74,11.51c-0.4-0.21-0.71-0.5-0.93-0.9c0.55,0.08,1.09,0.21,1.54,0.58l0.01,0.09
				C57.19,11.46,57.05,11.73,56.74,11.51z"/>
			<path fill="#EFD8A9" d="M46.63,8.33c-0.64-0.05-1.33,0.25-1.92-0.24C45.36,8.05,46.02,8.01,46.63,8.33z"/>
			<path fill="#EFC87D" d="M80.54,61.29c0.04-0.58-0.23-1.21,0.23-1.73C80.8,60.15,80.85,60.75,80.54,61.29z"/>
			<path fill="#C39C50" d="M19.11,61.11c0.62-0.49-0.05-1.4,0.59-1.88c0.03,1.17-0.1,2.35,0.31,3.49
				C19.13,62.52,19.3,61.71,19.11,61.11z"/>
			<path fill="#BC9649" d="M20.66,65.26c0.87,0.14,0.81,1.03,1.2,1.56c-0.09,0.13-0.12,0.31-0.31,0.34
				C21.07,66.61,20.75,65.99,20.66,65.26z"/>
			<path fill="#BB9449" d="M21.54,67.16c0.1-0.11,0.21-0.23,0.31-0.34c0.11,0.31,0.21,0.62,0.32,0.94
				c-0.01,0.23-0.01,0.45-0.02,0.68C21.79,68.09,21.6,67.66,21.54,67.16z"/>
			<path fill="#F0D090" d="M18.16,85.15c-0.1,0-0.21,0-0.31,0c0.1-0.42,0.21-0.84,0.31-1.26c0.28-0.07,0.43-0.02,0.31,0.32
				C18.46,84.55,18.52,84.92,18.16,85.15z"/>
			<path fill="#F0CD88" d="M18.47,84.2c-0.1-0.11-0.21-0.21-0.31-0.32c0.14-0.32,0.28-0.63,0.42-0.95
				C18.72,83.38,18.94,83.82,18.47,84.2z"/>
			<path fill="#E89563" d="M33,91.13c-0.1,0.1-0.21,0.19-0.31,0.29c-0.63-0.13-1.27-0.26-1.9-0.39C31.54,90.88,32.3,90.61,33,91.13z
				"/>
			<path fill="#CE5091" d="M39.73,93.37c-0.8-0.94-1.32-2.04-1.67-3.23c0.77,0.87,1.61,1.67,2.02,2.8
				C40.09,93.19,39.95,93.31,39.73,93.37z"/>
			<path fill="#893060" d="M39.73,93.37c0.12-0.14,0.23-0.28,0.35-0.42c0.36,0.33,0.93,0.76,0.34,1.18
				C40.04,94.39,39.84,93.76,39.73,93.37z"/>
			<path fill="#792A55" d="M42.56,92.44c0.69-0.07,1.17,0.15,1.26,0.93C43.17,93.39,42.83,92.97,42.56,92.44z"/>
			<path fill="#D14995" d="M37.6,88.62c0-0.21,0-0.42,0-0.63c0.11-0.1,0.21-0.1,0.32,0l-0.02-0.02c0.09,0.08,0.11,0.16,0.09,0.24
				c-0.03,0.08-0.06,0.12-0.08,0.12C37.8,88.43,37.7,88.53,37.6,88.62z"/>
			<path fill="#DE4E9D" d="M38.84,88.95c0.1,0.1,0.21,0.2,0.31,0.31C39.05,89.15,38.94,89.05,38.84,88.95z"/>
			<path fill="#782A55" d="M37.9,88.34c0-0.12,0-0.24,0-0.36c0.11,0.11,0.21,0.22,0.32,0.33C38.12,88.32,38.01,88.33,37.9,88.34z"/>
			<path fill="#B74083" d="M48.41,93.36c0.51-0.21,1.02-0.42,1.54-0.63c-0.69,0.98-1.53,1.8-2.47,2.53c-0.3-0.01-0.6-0.02-0.9-0.03
				C46.8,94.21,47.84,94.02,48.41,93.36z"/>
			<path fill="#9E3770" d="M54.89,88.94c-0.09,1.01-0.44,1.89-1.22,2.55c-0.21-0.17-0.37-0.37-0.34-0.67
				C53.71,90.07,54.19,89.4,54.89,88.94z"/>
			<path fill="#A93B77" d="M51.18,93.67c-0.56,0.23-0.81,0.98-1.53,0.95c0.6-0.76,1.1-1.66,2.14-1.9c0.27-0.1,0.34,0.05,0.33,0.29
				C51.91,93.37,51.6,93.61,51.18,93.67z"/>
			<path fill="#BF4387" d="M52.11,93.06c-0.1-0.11-0.21-0.23-0.31-0.34c0.11-0.32,0.22-0.64,0.33-0.96c0.33-0.19,0.65-0.28,0.93,0.1
				c0.09,0.2,0.18,0.39,0.27,0.59c-0.35,0.24-0.45,0.88-1.06,0.73C52.21,93.14,52.16,93.1,52.11,93.06z"/>
			<path fill="#7F2C59" d="M53.05,91.86c-0.31-0.03-0.62-0.06-0.93-0.1c0.27-0.49,0.59-0.91,1.2-0.95c0.27,0.14,0.32,0.4,0.34,0.67
				C53.46,91.61,53.26,91.73,53.05,91.86z"/>
			<path fill="#D84C99" d="M51.18,93.67c0.19-0.4,0.48-0.64,0.93-0.61v-0.01c0.17,0.17,0.48,0.27,0.33,0.62
				c-0.32,0.21-0.63,0.43-0.95,0.64C51.39,94.1,51.28,93.88,51.18,93.67z"/>
			<path fill="#872F60" d="M52.44,93.67c-0.11-0.21-0.22-0.41-0.33-0.62c0.4-0.2,0.81-0.4,1.21-0.6
				C53.29,93.05,52.95,93.42,52.44,93.67z"/>
			<path fill="#C9468E" d="M48.41,93.36c-0.44,0.8-1.19,1.28-1.83,1.86c-0.3-0.16-0.76-0.28-0.18-0.68c0.57-0.39,1.13-0.79,1.7-1.18
				C48.2,93.36,48.31,93.36,48.41,93.36z"/>
			<path fill="#C0994D" d="M67.86,27.29c-0.28-1.31-0.32-2.69-1.23-3.78c-0.05-0.05-0.11-0.1-0.16-0.15
				c-0.3-0.54-0.32-1.14-0.34-1.74c0.08-0.23,0.2-0.4,0.48-0.31c1.83,3.26,2.8,6.7,1.8,10.46c-0.16,0.62-0.22,1.22-0.27,1.84
				c-0.79,0.07-0.2-0.72-0.56-0.92c0.1-0.74,0.39-1.46,0.27-2.23C68.12,29.41,68.1,28.35,67.86,27.29z"/>
			<path fill="#F4DDAE" d="M62.6,20.05c0.42,0.52,1.24,0.7,1.23,1.57c-0.52,0.84-0.11,1.84-0.43,2.73
				c-0.25,0.68-0.46,0.56-0.79,0.11c-0.7-1.59-1.66-3.05-2.16-4.73C61.22,19.41,61.87,20.05,62.6,20.05z"/>
			<path fill="#F4DDAE" d="M68.47,24.15c-0.03-0.69-0.8-1.62-0.04-1.97c0.59-0.27,1.3,0.59,1.8,1.19c0.13,0.16,0.26,0.31,0.39,0.47
				c0.41-0.21,0.69-0.01,0.93,0.32c0.02,0.6,0.5,1.12,0.35,1.83c-1.29-0.27-1.48-2.01-2.81-2.14C68.92,24,68.83,24.35,68.47,24.15z"
				/>
			<path fill="#EFC87D" d="M67.54,52.28c-0.11-0.42-0.21-0.84-0.32-1.26c-0.2-0.63-0.41-1.26-0.61-1.9
				c-0.35-0.59-0.62-1.19-0.31-1.89c0.3-0.51,0.61-0.09,0.92-0.01c0.16,1.26,0.29,2.53,0.48,3.79
				C67.78,51.47,67.99,51.9,67.54,52.28z"/>
			<path fill="#EFC87D" d="M62.61,24.46c1.34-0.23,0.54-1.27,0.52-1.82c-0.03-0.7-0.11-1.09,0.71-1.03c0.12,0.3,0.33,0.52,0.62,0.64
				c0.23,0.27,0.54,0.52,0.3,0.95c-0.85,0.05-1,0.75-1.2,1.39c-0.1,0.33-0.02,0.81-0.55,0.74C62.51,25.27,62.65,24.8,62.61,24.46z"
				/>
			<path fill="#F0D39A" d="M76.18,44.39c0.21,0.94,0.42,1.89,0.64,2.83c0.26,0.77,0.51,1.55,0.77,2.32
				C76.41,48.01,75.38,46.43,76.18,44.39z"/>
			<path fill="#F3DBA9" d="M64.76,23.21c-0.1-0.32-0.2-0.63-0.3-0.95c0.49-0.21,0.7,0.69,1.23,0.31c1.09-0.49,0.55,0.7,0.93,0.95
				v-0.01c-0.02,0.45-0.05,0.9-0.08,1.49C65.61,24.64,65.38,23.71,64.76,23.21z"/>
			<path fill="#C0994D" d="M38.86,17.22c0.36,0.22,0.27,0.59,0.28,0.93c-0.24,0.95-0.24,1.89,0,2.84c-0.23,0.64,0.53,1.28-0.01,1.92
				c-0.84-0.43-0.53-1.25-0.63-1.94c-0.19-0.83-0.18-1.66,0-2.49C38.5,18.03,38.61,17.61,38.86,17.22z"/>
			<path fill="#EFC87D" d="M62.6,20.05c-0.84,0.78-1.43-0.31-2.16-0.32c-0.39-0.35-0.13-0.86,0.12-0.71
				C61.23,19.41,62.2,19.16,62.6,20.05z"/>
			<path fill="#F1D397" d="M68.15,45.65c-0.25-0.53-0.5-1.06-0.85-1.8c-0.03,0.64-0.05,1.06-0.07,1.48
				c-0.55-0.56-0.21-1.27-0.31-1.9c-0.07-0.48,0.24-0.47,0.56-0.46c0.69,0.37,0.53,1.23,0.98,1.74l-0.01-0.02
				c0.19,0.41-0.04,0.68-0.28,0.95C68.17,45.63,68.15,45.65,68.15,45.65z"/>
			<path fill="#BD964A" d="M67.85,34.27c-0.01,0.72-0.01,1.45-0.02,2.17c-0.07,0.12-0.17,0.19-0.3,0.21
				c-0.06-0.01-0.13-0.02-0.19-0.03c-0.05-0.04-0.1-0.08-0.15-0.12c0.23-0.84-0.27-1.78,0.32-2.57
				C67.82,33.85,67.95,33.94,67.85,34.27z"/>
			<path fill="#EFC87D" d="M58.59,12.47c0.41,0.21,0.72,0.51,0.92,0.93c-0.02,0.5-0.33,0.78-0.76,0.76
				c-0.72-0.04-0.13-0.8-0.48-1.07c0-0.11-0.01-0.21-0.01-0.32C58.31,12.6,58.42,12.49,58.59,12.47z"/>
			<path fill="#F3DAA7" d="M71.56,24.15c-0.31-0.11-0.62-0.21-0.93-0.32c0.21-0.31-0.38-1.1,0.43-0.97
				C71.65,22.95,72.18,23.4,71.56,24.15z"/>
			<path fill="#EFC87D" d="M67.54,43.12c-0.25,0.01-0.48,0.06-0.62,0.31c-0.37-0.21-0.75-0.47-0.41-0.94
				c0.23-0.31,0.49-0.92,1.03-0.31C67.76,42.49,67.82,42.81,67.54,43.12z"/>
			<path fill="#BB9449" d="M73.13,47.84c-0.1-0.11-0.21-0.22-0.31-0.33c-0.01-0.52-0.03-1.03-0.04-1.55
				c-0.2-0.36-0.24-0.64,0.3-0.62c0.11,0.62,0.22,1.24,0.33,1.86C73.4,47.46,73.37,47.7,73.13,47.84z"/>
			<path fill="#CAA357" d="M67.54,43.12c0-0.31,0-0.62,0-0.93c0.92,0.61,0.69,1.66,0.92,2.53C67.72,44.45,67.9,43.62,67.54,43.12z"
				/>
			<path fill="#C49D51" d="M66.6,21.32c-0.11,0.12-0.21,0.24-0.32,0.36c-0.21,0.12-0.41,0.13-0.59-0.06
				c-0.02-0.15-0.02-0.31-0.07-0.45c-0.11-0.32-0.4-0.73-0.01-0.94c0.4-0.22,0.56,0.25,0.73,0.55
				C66.44,20.95,66.51,21.14,66.6,21.32z"/>
			<path fill="#EFC87D" d="M61.68,15.01c0.51,0.12,0.87,1.09,1.55,0.3c-0.1,0.48-0.38,0.79-0.73,0.82
				C61.64,16.2,61.72,15.56,61.68,15.01z"/>
			<path fill="#EFC87D" d="M67.86,27.29c0.44,1.06,0.45,2.12-0.01,3.17C67.85,29.41,67.86,28.35,67.86,27.29z"/>
			<path fill="#EDCB88" d="M65.69,21.62c0.2,0.02,0.39,0.04,0.59,0.06c0.15,0.61,0.44,1.19,0.34,1.84
				c-0.41-0.21-0.25-1.02-0.93-0.95C65.88,22.25,65.88,21.94,65.69,21.62z"/>
			<path fill="#CBA458" d="M68.17,45.63c0.09-0.32,0.19-0.63,0.28-0.95c0.5,0.41,0.26,1.12,0.61,1.6c-0.11,0.12-0.14,0.32-0.33,0.36
				C68.55,46.31,68.36,45.97,68.17,45.63z"/>
			<path fill="#EFC87D" d="M66.17,46.37c-0.43-0.12-0.73-0.34-0.63-0.83c0.01-0.07,0.27-0.18,0.37-0.14
				C66.42,45.58,66.35,45.95,66.17,46.37z"/>
			<path fill="#F1D396" d="M66.31,47.23c0.1,0.63,0.2,1.26,0.31,1.89c-0.1,0-0.2,0-0.3,0C65.85,48.49,65.83,47.86,66.31,47.23z"/>
			<path fill="#C7A054" d="M69.43,49.74c-0.02-0.1-0.04-0.2-0.06-0.3c0.23-0.54-0.55-1.09,0.02-1.62c0.2,0.44,0.4,0.88,0.6,1.31
				C69.76,49.29,69.98,49.88,69.43,49.74z"/>
			<path fill="#EFC87D" d="M38.49,18.48c0,0.83,0,1.66,0,2.49C38.06,20.15,38.06,19.32,38.49,18.48z"/>
			<path fill="#C19A4F" d="M69.43,49.74c0.19-0.2,0.37-0.41,0.56-0.61c0.1,0.32,0.2,0.63,0.3,0.95c-0.18,0.21-0.36,0.41-0.54,0.62
				C69.61,50.4,69.36,50.13,69.43,49.74z"/>
			<path fill="#EFC87D" d="M67.54,38.38c-0.75-0.13-0.82-0.5-0.34-1.87l0.07-0.04C67.79,37.04,67.3,37.76,67.54,38.38z"/>
			<path fill="#D0A95E" d="M73.09,45.34c-0.25,0.13-0.28,0.37-0.3,0.62c-0.47-0.47-0.3-1.04-0.25-1.63
				C73.02,44.53,73.05,44.94,73.09,45.34z"/>
			<path fill="#1C180F" d="M45.94,10.88c-0.72,0-1.44,0-2.16,0C44.5,10.52,45.22,10.45,45.94,10.88z"/>
			<path fill="#C49D51" d="M68.73,46.65c0.11-0.12,0.22-0.24,0.33-0.36c0.11,0.42,0.22,0.83,0.33,1.25c-0.21,0-0.41,0-0.62,0.01
				C68.76,47.25,68.75,46.95,68.73,46.65z"/>
			<path fill="#BC9549" d="M67.54,38.38c-0.6-0.56-0.22-1.27-0.27-1.91c0.1,0.01,0.19,0.01,0.29,0.02c0.21,0.52,0.19,1.04,0.01,1.56
				C67.56,38.16,67.55,38.27,67.54,38.38z"/>
			<path fill="#C49D52" d="M67.85,34.27c-0.11-0.11-0.22-0.23-0.34-0.34c0.02-0.41,0.04-0.82,0.06-1.24
				c0.19,0.31,0.37,0.62,0.56,0.92C68.15,33.89,68.1,34.12,67.85,34.27z"/>
			<path fill="#EFC87D" d="M79.26,61.78c-0.49-0.58-0.22-1.26-0.27-1.9C79.5,60.45,79.18,61.15,79.26,61.78z"/>
			<path fill="#EFC87D" d="M67.57,38.05c0-0.52-0.01-1.04-0.01-1.56c0.09-0.01,0.19-0.02,0.28-0.04
				C67.78,36.98,68.05,37.58,67.57,38.05z"/>
			<path fill="#F2D7A1" d="M68.47,24.15c0.21-0.1,0.41-0.2,0.62-0.31c-0.04,0.28,0.09,0.66-0.24,0.78
				C68.51,24.73,68.53,24.37,68.47,24.15z"/>
			<path fill="#030202" d="M38.56,69.28c-0.87-1.2-1.72-2.43-2.64-3.58c-0.2-0.26-0.7-0.29-0.45-0.78c0.19-0.38,0.59-0.39,0.95-0.37
				c0.61,0.03,1.12,0.53,1.77,0.42c5.58,0.65,11.15,0.65,16.73,0.02c0.25-0.04,0.57,0,0.73-0.15c0.59-0.52,1.28-0.69,1.76-0.1
				c0.7,0.88-0.55,0.81-0.79,1.28c-0.55,1.05-1.24,2.02-2.06,2.88c-1.86,2.41-4.61,2.43-7.22,2.75c-1.11,0.14-2.24,0.03-3.37,0.01
				c-0.25-0.01-0.5-0.05-0.75-0.11C41.55,71.05,39.79,70.74,38.56,69.28z"/>
			<path fill="#040303" d="M36.58,50.12c-0.82-0.01-1.68-0.19-2.46-0.01c-2.74,0.61-4.21-0.92-5.34-3.13
				c1.12-0.94,2.15-1.99,3.56-2.6c3.4-1.47,8.33,0.15,9.75,3.33c0.47,1.04,0.66,1.97-0.93,2.04c-0.08-1.8-1.15-2.84-2.63-3.57
				c-1.15-0.88-2.48-0.8-3.81-0.74c-0.84,0.05-1.6,0.33-2.26,0.85c-1.53,1.19-1.44,2.02,0.32,2.93c1.49,0.38,3.09-0.37,4.53,0.5
				C37.33,50.35,36.95,50.21,36.58,50.12z"/>
			<path fill="#FD9867" d="M43.77,71.3c1.35-0.34,2.73,0,4.09-0.12c2.42-0.21,4.69-0.84,6.7-2.29c-0.39,1.69-1.83,2.36-3.08,3.07
				c-3.66,2.09-10.17,1.67-12.92-2.68c1.4,1.02,3.15,1.15,4.63,1.94c0.39,0.89,1.2,0.73,2.05,0.91
				C44.7,71.73,43.89,72.15,43.77,71.3z"/>
			<path fill="#8E693A" d="M29.55,40.57c3.29-4.09,8.95-3.64,11.87-2.15c0.54,0.28,1.02,0.79,0.76,1.37
				c-0.31,0.69-0.88,0.08-1.31-0.05C37.35,38.7,36.13,37.85,29.55,40.57z"/>
			<path fill="#E37E4D" d="M54.92,64.97c-4.27,1.28-8.62,1.15-12.98,0.74c-1.26-0.12-2.56-0.22-3.75-0.76
				C43.77,64.69,49.35,64.87,54.92,64.97z"/>
			<path fill="#FAFAFA" d="M38.85,46c2.03,0.9,2.87,2.25,2.32,3.75c-0.15-0.06-0.19-0.01-0.16,0.14c-0.53,0.67-1.21,0.51-1.89,0.35
				c-0.46-0.17-0.97-0.11-1.43-0.33c-0.11-0.11-0.22-0.29-0.13-0.4C38.46,48.51,38.63,47.25,38.85,46z"/>
			<path fill="#7A3024" d="M49.7,54.54c-1.23-1.74-1.42-5.29-0.29-7.35C49.2,49.84,49.62,52.08,49.7,54.54z"/>
			<path fill="#772C21" d="M44.38,60.53c0.41,0.03,0.68,0.29,0.95,0.57c0.27,0.29,0.74,0.39,0.77,0.89
				c-0.01,0.14-0.06,0.26-0.16,0.36c-1-0.79-2.17-1.18-3.36-1.55C43.15,60.51,43.8,60.73,44.38,60.53z"/>
			<path fill="#8C4333" d="M45.94,62.06c-0.2-0.32-0.41-0.64-0.61-0.96c0.85,0.12,1.67,0.09,2.42-0.39
				c0.25,0.24,0.21,0.49,0.03,0.75c-0.11,0.1-0.21,0.2-0.32,0.3C46.96,61.87,46.53,62.41,45.94,62.06z"/>
			<path fill="#843B2C" d="M47.79,61.46c-0.01-0.25-0.02-0.5-0.03-0.75c0.81-0.47,1.66-0.21,2.5-0.18c0.15,0.59-0.5,0.32-0.62,0.62
				C49.02,61.25,48.4,61.36,47.79,61.46z"/>
			<path fill="#792E23" d="M50.62,59.88c-0.05-0.49-0.11-0.99-0.19-1.72c0.83,0.85,0.97,1.57,0.48,2.42
				C50.63,60.42,50.79,60.07,50.62,59.88z"/>
			<path fill="#E1916D" d="M54.9,43.28c0.82-0.72,1.52-0.38,2.18-0.38C56.44,43.07,55.86,43.57,54.9,43.28z"/>
			<path fill="#81372A" d="M42.14,60.16c0.12,0.49-0.1,0.81-0.45,0.37c-0.53-0.66-0.27-1.42,0.19-2.07
				C42.29,58.98,41.93,59.61,42.14,60.16z"/>
			<path fill="#201A13" d="M38.93,50.03c0.69-0.05,1.38-0.1,2.07-0.14c-0.02,0.22-0.02,0.45-0.31,0.5
				c-0.57,0.27-1.15,0.16-1.72,0.04c-0.35-0.03-0.7-0.06-1.05-0.09C38.08,49.61,38.56,49.99,38.93,50.03z"/>
			<path fill="#2B241D" d="M38.93,50.03c-0.34,0.08-0.74-0.04-1.01,0.3c-0.46,0.03-0.92,0.05-1.34-0.21
				c0.23-0.1,0.46-0.21,0.69-0.31c0.09-0.14,0.21-0.18,0.36-0.1C38.07,49.82,38.5,49.92,38.93,50.03z"/>
			<path fill="#75291F" d="M50.62,59.88c0.1,0.23,0.19,0.46,0.29,0.7c-0.23,0.63-0.74,0.63-1.27,0.58c0.21-0.21,0.42-0.41,0.62-0.62
				C50.38,60.31,50.5,60.09,50.62,59.88z"/>
			<path fill="#8F4937" d="M42.14,60.16c-0.41-0.52-0.14-1.14-0.26-1.7c0.1-0.29,0.28-0.54,0.34-0.02
				C42.27,59.01,42.17,59.59,42.14,60.16z"/>
			<path fill="#75291F" d="M44.38,60.53c-0.54,0.51-1.2,0.19-1.8,0.28C43.11,60.22,43.73,60.28,44.38,60.53z"/>
			<path fill="#E08F6C" d="M36.35,43.12c-0.51-0.01-1.02-0.01-1.52-0.02c-0.11-0.07-0.14-0.14-0.11-0.2c0.04-0.06,0.07-0.1,0.11-0.1
				c0.71,0.01,1.42,0.01,2.13,0.02C36.97,43.38,36.69,43.31,36.35,43.12z"/>
			<path fill="#E69C75" d="M36.35,43.12c0.24-0.02,0.48-0.05,0.61-0.3c0.22,0.03,0.63,0.07,0.46,0.34
				C37.14,43.62,36.7,43.48,36.35,43.12z"/>
			<path fill="#F4B789" d="M57.8,42.94c0.59-0.21,0.88,0.03,1.18,0.33C58.52,43.55,58.24,43.24,57.8,42.94z"/>
			<path fill="#75291F" d="M45.94,62.06c0.51-0.1,1.02-0.2,1.53-0.3c-0.42,0.43-0.85,0.84-1.53,0.59
				C45.94,62.26,45.94,62.16,45.94,62.06z"/>
			<path fill="#2B241D" d="M38.97,50.43c0.57-0.01,1.15-0.03,1.72-0.04C40.13,50.88,39.56,50.74,38.97,50.43z"/>
			<path fill="#F4B889" d="M34.84,42.81c-0.01,0.1-0.01,0.2-0.01,0.3c-0.31,0.11-0.59,0.41-1,0.22
				C34.07,42.89,34.45,42.84,34.84,42.81z"/>
			<path fill="#BE974B" d="M17.84,39.94c-0.01-0.63-0.01-1.26-0.02-1.89c0.18-3.34,0.83-6.57,2.31-9.59
				c-0.7,3.39-1.56,6.74-1.67,10.22c-0.45,0.71,0.25,1.58-0.3,2.28C17.47,40.81,17.7,40.36,17.84,39.94z"/>
			<path fill="#F3DAA6" d="M34.77,16.55c0,0.22,0.01,0.44,0.01,0.67c-0.67,0.29-1.3,0.61-1.98-0.06c-0.44-0.44-0.65,0.19-0.93,0.38
				c-0.81,0.56-1.07,0.22-1.06-0.64c-0.04-0.06-0.08-0.11-0.13-0.17c0.03-0.14,0.11-0.25,0.23-0.34c0.25-0.13,0.52-0.16,0.79-0.21
				c0.33-0.06,0.63-0.21,0.97-0.25C33.49,15.68,34.38,15.2,34.77,16.55z"/>
			<path fill="#C8A156" d="M23.09,31.9c-0.34-0.66-0.05-1.14,0.35-1.77C23.88,30.97,23.35,31.4,23.09,31.9z"/>
			<path fill="#2C2517" d="M19.13,40.99c-0.16-0.43,0.13-0.97-0.31-1.34c-0.02-0.51,0.09-0.98,0.57-1.68
				C19.42,39.19,19.53,40.1,19.13,40.99z"/>
			<path fill="#DBB76F" d="M18.12,40.87c0.15-0.73-0.22-1.53,0.33-2.19c0.07,0.42-0.12,0.89,0.25,1.25
				c-0.08,0.58-0.05,1.2-0.54,1.64C17.98,41.35,17.96,41.12,18.12,40.87z"/>
			<path fill="#EFD093" d="M27.43,17.19c0.1,0.11,0.2,0.23,0.3,0.34c-0.02,0.43-0.24,0.73-0.58,0.97
				C26.42,17.88,27.38,17.64,27.43,17.19z"/>
			<path fill="#C9A257" d="M22.76,33.62c-0.24,0.36-0.13,0.92-0.72,1.21c-0.1-0.64,0.08-1.11,0.41-1.55
				C22.64,33.32,22.66,33.51,22.76,33.62z"/>
			<path fill="#C7A054" d="M21.6,26.06c-0.11,0.44-0.19,0.91-0.73,1.17c-0.33-0.58,0.29-0.8,0.38-1.18
				C21.37,25.92,21.48,25.93,21.6,26.06z"/>
			<path fill="#F1D295" d="M28.95,17.5c0.12-0.3,0.33-0.51,0.62-0.63c0.18,0.04,0.29,0.15,0.32,0.34c-0.21,0.42-0.52,0.74-0.93,0.94
				C28.76,17.94,28.79,17.72,28.95,17.5z"/>
			<path fill="#F4DCAC" d="M29.89,17.21c-0.11-0.11-0.21-0.23-0.32-0.34c0.1-0.1,0.2-0.21,0.3-0.31c0.31-0.21,0.63-0.28,0.94,0.01
				c0,0.11,0,0.22,0,0.33C30.5,17,30.2,17.1,29.89,17.21z"/>
			<path fill="#C49E52" d="M22.76,33.62c-0.1-0.11-0.21-0.23-0.31-0.34c0.1-0.28-0.08-0.91,0.4-0.71
				C23.27,32.75,22.72,33.25,22.76,33.62z"/>
			<path fill="#CAA358" d="M21.6,26.06c-0.12,0-0.23-0.01-0.35-0.01c0.15-0.3,0.21-0.67,0.58-0.79c0.06-0.02,0.2,0.07,0.21,0.12
				C22.1,25.74,21.85,25.9,21.6,26.06z"/>
			<path fill="#ECC984" d="M28.95,17.5c0,0.22,0.01,0.44,0.01,0.65c-0.16,0.21-0.19,0.7-0.62,0.3C28.37,18.02,28.58,17.7,28.95,17.5
				z"/>
			<path fill="#BC954A" d="M48.1,15.3c-2.16,1.7-3.78,3.88-5.21,6.22c0.87-2.79,2.35-5.08,4.9-6.54
				C48.11,14.86,48.16,15.02,48.1,15.3z"/>
			<path fill="#BD964A" d="M52.72,17.83c-2.11,0.72-3.99,1.94-5.97,2.94c1.5-1.57,3.18-2.83,5.36-3.25
				C52.46,17.32,52.74,17.25,52.72,17.83z"/>
			<path fill="#BD964B" d="M45.01,14.67c-0.91,1.83-2.35,3.37-2.77,5.48C41.85,18.14,43.24,15.49,45.01,14.67L45.01,14.67z"/>
			<path fill="#C29B50" d="M39.14,20.99c-0.49-0.95-0.49-1.89,0-2.84C39.14,19.1,39.14,20.04,39.14,20.99z"/>
			<path fill="#BF984D" d="M52.72,17.83c-0.13-0.25-0.36-0.3-0.62-0.31c0.44-0.46,1.01-0.34,1.73-0.49
				C53.56,17.67,53,17.56,52.72,17.83z"/>
			<path fill="#BD974B" d="M45.01,14.68c0.19-0.42,0.49-0.73,1.17-1C45.86,14.38,45.55,14.65,45.01,14.68
				C45.01,14.67,45.01,14.68,45.01,14.68z"/>
			<path fill="#BE974B" d="M48.1,15.3c-0.1-0.11-0.21-0.21-0.31-0.32c0.25-0.31,0.55-0.54,1.01-0.52C48.8,14.98,48.4,15.1,48.1,15.3
				z"/>
			<path fill="#BF984C" d="M58.59,81.36c-0.1,0.11-0.2,0.21-0.31,0.32c-0.38-0.28-0.32-0.64-0.19-1.27
				C58.33,80.86,58.46,81.11,58.59,81.36z"/>
			<path fill="#843B2C" d="M21.51,50.95c0.1,0.12,0.21,0.25,0.31,0.37c0,0.35,0,0.7,0,1.15C21.32,51.96,21.13,51.51,21.51,50.95z"/>
			<path fill="#050608" d="M56.74,45.93c0.94,0.22,1.07,0.93,0.84,1.7c-0.2,0.68-0.78,1.01-1.47,0.83
				c-0.95-0.24-1.14-0.95-0.91-1.84C55.71,46.38,56.21,46.12,56.74,45.93z"/>
			<path fill="#EAECEF" d="M56.74,45.93c-0.24,0.86-0.74,1.12-1.54,0.69c0-0.43,0-0.87-0.01-1.3h-0.01
				C55.82,45.21,56.42,45.2,56.74,45.93z"/>
			<path fill="#C59E53" d="M30.78,85.17c-0.18,0.2-0.36,0.41-0.54,0.61c0.15-0.75-0.47-1.48-0.05-2.24
				C30.59,84.01,30.7,84.58,30.78,85.17z"/>
			<path fill="#802D5B" d="M37.92,88c-0.11,0-0.21,0-0.32,0c0-0.1,0-0.2,0.01-0.3C37.72,87.8,37.82,87.9,37.92,88z"/>
			<path fill="#F1D59C" d="M30.81,16.57c-0.31,0-0.62,0-0.94,0c0.49-0.84,1.23-1.24,2.17-1.25c0,0.1,0,0.2,0.01,0.3
				C31.8,16.15,31.15,16.15,30.81,16.57L30.81,16.57z"/>
			<path fill="#F4DEB0" d="M30.81,16.57c0.1-0.75,0.68-0.84,1.24-0.95c0.09,0.01,0.18,0.02,0.28,0.03c0.22,0.59-0.36,0.64-0.59,0.92
				C31.43,16.57,31.12,16.57,30.81,16.57z"/>
			<path fill="#F1D294" d="M31.74,16.57c0.2-0.31,0.4-0.62,0.59-0.92c0.11,0.1,0.22,0.2,0.34,0.29
				C32.49,16.36,32.18,16.57,31.74,16.57z"/>
			<path fill="#F3D9A4" d="M58.59,12.47c-0.11,0.1-0.22,0.2-0.33,0.3c-0.51-0.42-1.02-0.84-1.53-1.26c0.21-0.08,0.41-0.15,0.62-0.23
				C57.77,11.68,58.18,12.07,58.59,12.47z"/>
			<path fill="#BA954D" d="M17.87,42.81c-0.11,0-0.23,0-0.34-0.01c0.02-0.52,0.03-1.04,0.05-1.55c0.59-0.2,0.3,0.45,0.54,0.59
				C18.19,42.2,18.31,42.58,17.87,42.81z"/>
			<path fill="#C39F5A" d="M18.12,41.84c-0.18-0.2-0.36-0.4-0.54-0.59c0-0.45-0.15-0.94,0.26-1.3c0.03,0.33-0.06,0.7,0.29,0.93
				c0.01,0.23,0.03,0.47,0.04,0.7C18.17,41.67,18.15,41.75,18.12,41.84z"/>
			<path fill="#F5F5F5" d="M38.27,67.09c-0.23-0.32-0.46-0.65-0.91-1.27c6.2,1.57,12.09,1.56,18,0.12
				c-0.07,0.59-0.36,0.94-0.75,1.22c-0.96,0.71-2.07,1.01-3.2,1.23c-0.42,0.1-0.85,0.11-1.29,0.13c-1.85,0.22-3.71,0.49-5.58,0.22
				c-1.24-0.37-2.55-0.16-3.78-0.54C39.8,68.14,38.97,67.78,38.27,67.09z"/>
			<path fill="#F2F2F2" d="M53.76,68.09c-2.59,2.26-5.72,2.25-8.83,2.08c-1.94-0.11-3.84-0.53-5.45-1.8
				c-0.03-0.57,0.34-0.43,0.65-0.38c0.98,0.05,1.9,0.51,2.9,0.41c2.68,0.43,5.35,0.18,8.02-0.07c0.33-0.08,0.66-0.19,1-0.23
				C52.63,68.17,53.19,67.56,53.76,68.09z"/>
			<path fill="#FEB896" d="M43.77,71.3c0.52,0.46,1.17,0.15,1.75,0.3c0.3,0.08,0.61,0.19,0.57,0.58c-0.04,0.34-0.36,0.29-0.6,0.32
				c-0.78,0.1-1.51-0.12-2.2-0.44c-0.36-0.17-0.54-0.49-0.1-0.83C43.39,71.25,43.58,71.27,43.77,71.3z"/>
			<path fill="#A6A6A6" d="M53.76,68.09c-0.56,0.08-1.12,0.17-1.68,0.25c-0.18-0.18-0.52-0.02-0.65-0.31
				c1.06-0.29,2.12-0.58,3.18-0.88C54.42,67.56,54.22,67.95,53.76,68.09z"/>
			<path fill="#919191" d="M40.03,68.11c-0.22,0.02-0.47-0.04-0.56,0.26c-0.6-0.23-0.91-0.75-1.2-1.28
				c0.79,0.24,1.58,0.49,2.38,0.73C40.66,68.42,40.32,68.21,40.03,68.11z"/>
			<path fill="#5E8AB3" d="M37.64,49.71c-0.12,0.03-0.24,0.07-0.36,0.1C35.66,49.55,34,50,32.4,49.52c0.26-0.57,0.91-0.31,1.35-0.62
				c-0.57-1.47-0.83-2.86,0.74-3.85c1.57-0.24,3.09-0.27,4.36,0.94C39.39,47.56,38.81,48.74,37.64,49.71z"/>
			<path fill="#F8F8F8" d="M34.49,45.05c-1.08,1.39-1.09,2.83,0.03,4.33c-0.83,0.05-1.48,0.1-2.13,0.14
				c-1.66-0.8-1.9-2.03-0.62-3.23C32.54,45.57,33.43,45.11,34.49,45.05z"/>
			<path fill="#FEBD9D" d="M47.31,71.65c0.34-0.04,0.53,0.07,0.59,0.28c0.09,0.34-0.15,0.47-0.42,0.49
				c-0.22,0.01-0.44-0.12-0.43-0.35C47.07,71.9,47.25,71.75,47.31,71.65z"/>
			<path fill="#9D9D9D" d="M51.22,68.41c-2.76,0.68-5.55,0.51-8.33,0.24c0.4-0.82,1.04-0.32,1.59-0.3c1.94-0.07,3.87-0.15,5.81-0.22
				C50.56,68.36,50.97,68.1,51.22,68.41z"/>
			<path fill="#A7A7A7" d="M44.47,68.36c-0.52,0.14-1.13-0.17-1.59,0.3c-0.99,0.02-1.94-0.14-2.85-0.55
				c0.21-0.09,0.41-0.19,0.62-0.28C41.92,68.07,43.23,67.93,44.47,68.36z"/>
			<path fill="#949494" d="M51.22,68.41c-0.32-0.05-0.69,0.05-0.93-0.27c0.38-0.03,0.76-0.07,1.15-0.1c0.22,0.1,0.44,0.21,0.65,0.31
				C51.79,68.37,51.5,68.39,51.22,68.41z"/>
			<path fill="#040506" d="M36.69,45.94c1.06,0.2,1.06,0.98,0.82,1.76c-0.18,0.59-0.71,0.89-1.33,0.77
				c-1.02-0.2-1.22-0.94-1.04-1.87C35.66,46.37,36.2,46.23,36.69,45.94z"/>
			<path fill="#EBECEE" d="M36.69,45.94c-0.22,0.94-0.78,1.06-1.55,0.67c-0.03-0.48-0.26-1.05,0.38-1.29
				C36.09,45.11,36.45,45.44,36.69,45.94z"/>
		</g>
	</g>
</g>
<g>
	<path d="M95.29,14.81h4.47v24.6h-4.47V14.81z"/>
</g>
<g>
	<path d="M106.24,14.81l10.84,17.43V14.81h4.47v24.6h-4.55l-11.18-18.04V39.4h-4.47v-24.6H106.24z"/>
</g>
<g>
	<path d="M136.14,21.59c-0.4-2.15-1.92-3.22-4.55-3.22c-1.29,0-2.29,0.26-3.01,0.78c-0.72,0.52-1.08,1.14-1.08,1.88
		c0,0.73,0.23,1.31,0.7,1.72c0.47,0.42,1.19,0.8,2.18,1.16l5.34,2.08c1.82,0.71,3.22,1.6,4.21,2.67c0.99,1.07,1.48,2.42,1.48,4.04
		c0,2.22-0.83,3.99-2.5,5.29c-1.67,1.3-4.04,1.95-7.12,1.95c-2.73,0-4.94-0.67-6.63-2.01c-1.9-1.47-2.89-3.54-2.99-6.22h4.43
		c0,2.02,1.05,3.3,3.15,3.83c0.63,0.18,1.46,0.26,2.5,0.26s2-0.26,2.88-0.78c0.88-0.52,1.33-1.21,1.33-2.08
		c0-0.87-0.24-1.54-0.72-2.01c-0.48-0.47-1.26-0.9-2.35-1.31l-4.89-1.93c-1.9-0.73-3.35-1.59-4.36-2.58
		c-1.01-0.99-1.52-2.35-1.52-4.09c0-2.05,0.8-3.66,2.39-4.85c1.62-1.24,3.81-1.86,6.58-1.86s4.9,0.64,6.4,1.91
		c1.5,1.28,2.37,3.06,2.6,5.36H136.14z"/>
</g>
<g>
	<path d="M142.02,14.81h4.47v24.6h-4.47V14.81z"/>
</g>
<g>
	<path d="M156.12,14.81c3.74,0,6.76,1.11,9.06,3.33c2.32,2.22,3.49,5.22,3.49,8.98c0,3.74-1.16,6.72-3.49,8.94
		c-2.3,2.22-5.32,3.33-9.06,3.33h-8v-24.6H156.12z M152.63,35.35h3.49c2.32,0,4.21-0.78,5.65-2.35c1.37-1.52,2.05-3.47,2.05-5.88
		c0-2.45-0.68-4.43-2.05-5.95c-1.42-1.54-3.3-2.31-5.65-2.31h-3.49V35.35z"/>
</g>
<g>
	<path d="M168.73,14.81h15.84v3.87h-11.37v6.48h10.65v3.87h-10.65v6.48h11.37v3.9h-15.84V14.81z"/>
</g>
<g>
	<path fill="#FF69B4" d="M190.11,14.81v10.12l9.7-10.12h6.14l-10.84,11.07l11.56,13.53h-5.8l-8.75-10.42l-2.01,2.05v8.38h-4.51
		v-24.6H190.11z"/>
</g>
<g>
	<path fill="#FF69B4" d="M204.96,14.81h15.84v3.87h-11.37v6.48h10.65v3.87h-10.65v6.48h11.37v3.9h-15.84V14.81z"/>
</g>
<g>
	<path fill="#FF69B4" d="M226.3,35.5h10.12v3.9h-14.59v-24.6h4.47V35.5z"/>
</g>
<g>
	<path fill="#FF69B4" d="M239.64,35.5h10.12v3.9h-14.59v-24.6h4.47V35.5z"/>
</g>
<g>
	<path fill="#FF69B4" d="M247.98,14.81l5.42,9.82l5.69-9.82h5.27l-8.75,14.44V39.4h-4.47V29.25l-8.45-14.44H247.98z"/>
</g>
<g>
	<path fill="#FF69B4" d="M261.62,17.39c0-0.76,0.29-1.4,0.87-1.91c0.58-0.52,1.37-0.78,2.37-0.78s1.82,0.4,2.46,1.19
		s0.97,1.78,0.97,2.96s-0.41,2.33-1.23,3.47c-0.82,1.14-1.91,2.05-3.28,2.73l-3.11-1.71c1.95-0.99,3.12-2.1,3.52-3.33
		c-0.73-0.13-1.34-0.4-1.84-0.83C261.87,18.74,261.62,18.14,261.62,17.39z"/>
</g>
<g>
	<path fill="#FF69B4" d="M280.91,21.59c-0.4-2.15-1.92-3.22-4.55-3.22c-1.29,0-2.29,0.26-3.01,0.78c-0.72,0.52-1.08,1.14-1.08,1.88
		c0,0.73,0.23,1.31,0.7,1.72c0.47,0.42,1.19,0.8,2.18,1.16l5.34,2.08c1.82,0.71,3.22,1.6,4.21,2.67c0.99,1.07,1.48,2.42,1.48,4.04
		c0,2.22-0.83,3.99-2.5,5.29c-1.67,1.3-4.04,1.95-7.12,1.95c-2.73,0-4.94-0.67-6.63-2.01c-1.89-1.47-2.89-3.54-2.99-6.22h4.43
		c0,2.02,1.05,3.3,3.15,3.83c0.63,0.18,1.46,0.26,2.5,0.26s2-0.26,2.88-0.78s1.33-1.21,1.33-2.08c0-0.87-0.24-1.54-0.72-2.01
		c-0.48-0.47-1.26-0.9-2.35-1.31l-4.89-1.93c-1.9-0.73-3.35-1.59-4.36-2.58c-1.01-0.99-1.52-2.35-1.52-4.09
		c0-2.05,0.8-3.66,2.39-4.85c1.62-1.24,3.81-1.86,6.58-1.86s4.9,0.64,6.4,1.91c1.5,1.28,2.37,3.06,2.6,5.36H280.91z"/>
</g>
<g>
	<path d="M101.22,42.28v14.68l14.08-14.68h8.91l-15.73,16.06l16.77,19.63h-8.41l-12.7-15.12l-2.91,2.97v12.15h-6.54V42.28H101.22z"
		/>
</g>
<g>
	<path d="M126.29,42.28h6.49v35.69h-6.49V42.28z"/>
</g>
<g>
	<path d="M133.88,42.28h28.59v5.61h-11.05v30.08h-6.49V47.89h-11.05V42.28z"/>
</g>
<g>
	<path d="M176.39,41.57c2.2,0,4.11,0.27,5.72,0.8c1.61,0.53,3.01,1.27,4.18,2.23c2.31,1.87,3.81,4.49,4.51,7.86l-6.93,1.26
		c-0.59-1.87-1.49-3.38-2.72-4.54c-1.23-1.15-2.76-1.73-4.59-1.73c-2.49,0-4.51,1.04-6.05,3.13c-1.65,2.27-2.47,5.42-2.47,9.43
		c0,4.01,0.73,7.15,2.2,9.4c1.47,2.25,3.46,3.38,5.99,3.38s4.44-0.61,5.72-1.84s1.92-2.81,1.92-4.76h6.98c0,4-1.27,7.08-3.82,9.27
		c-2.55,2.18-6.04,3.27-10.48,3.27c-4.73,0-8.49-1.65-11.27-4.95c-2.82-3.37-4.23-7.96-4.23-13.75c0-5.86,1.45-10.45,4.34-13.75
		C168.17,43.14,171.84,41.57,176.39,41.57z"/>
</g>
<g>
	<path d="M200.58,42.28v14.9h15.56v-14.9h6.49v35.69h-6.49V62.85h-15.56v15.12h-6.49V42.28H200.58z"/>
</g>
<g>
	<path d="M228.52,42.28h22.99v5.61H235v9.4h15.45v5.61H235v9.4h16.5v5.66h-22.99V42.28z"/>
</g>
<g>
	<path d="M263.43,42.28l15.73,25.29V42.28h6.49v35.69h-6.6l-16.22-26.17v26.17h-6.49V42.28H263.43z"/>
</g>
</svg>
